<svg width="56" height="56" viewBox="0 0 56 56" fill="none" xmlns="http://www.w3.org/2000/svg">
<path fill-rule="evenodd" clip-rule="evenodd" d="M28 56C43.464 56 56 43.464 56 28C56 12.536 43.464 0 28 0C12.536 0 0 12.536 0 28C0 43.464 12.536 56 28 56Z" fill="#F2F2F2"/>
<path fill-rule="evenodd" clip-rule="evenodd" d="M12 19.0002C12 16.7911 13.7909 15.0002 16 15.0002H40C42.2091 15.0002 44 16.7911 44 19.0002V20.8894H12V19.0002ZM12 23.0005V40.0002C12 41.6571 13.3431 43.0002 15 43.0002H36.0201L44 34.3423V23.0005H12Z" fill="#00A82D"/>
<circle cx="18" cy="29" r="1.5" fill="white"/>
<circle cx="28" cy="29" r="1.5" fill="white"/>
<circle cx="38" cy="29" r="1.5" fill="white"/>
<circle cx="18" cy="36" r="1.5" fill="white"/>
<circle cx="28" cy="36" r="1.5" fill="white"/>
<path fill-rule="evenodd" clip-rule="evenodd" d="M44 34.2938L38.9754 34.2938C37.3185 34.2938 35.9754 35.6369 35.9754 37.2938L35.9754 43.0002L44 34.2938Z" fill="#CADA2A"/>
<mask id="path-9-outside-1" maskUnits="userSpaceOnUse" x="19.6111" y="11.0002" width="4" height="8" fill="black">
<rect fill="white" x="19.6111" y="11.0002" width="4" height="8"/>
<path fill-rule="evenodd" clip-rule="evenodd" d="M22.6111 13.0002C22.6111 12.448 22.1634 12.0002 21.6111 12.0002C21.0589 12.0002 20.6111 12.448 20.6111 13.0002L20.6111 15.0002H20.6111V17.0002C20.6111 17.5525 21.0589 18.0002 21.6111 18.0002C22.1634 18.0002 22.6111 17.5525 22.6111 17.0002L22.6111 15.0002H22.6111L22.6111 13.0002Z"/>
</mask>
<path fill-rule="evenodd" clip-rule="evenodd" d="M22.6111 13.0002C22.6111 12.448 22.1634 12.0002 21.6111 12.0002C21.0589 12.0002 20.6111 12.448 20.6111 13.0002L20.6111 15.0002H20.6111V17.0002C20.6111 17.5525 21.0589 18.0002 21.6111 18.0002C22.1634 18.0002 22.6111 17.5525 22.6111 17.0002L22.6111 15.0002H22.6111L22.6111 13.0002Z" fill="#1A1A1A"/>
<path d="M22.6111 13.0002L23.6111 13.0002V13.0002H22.6111ZM20.6111 13.0002L21.6111 13.0002L20.6111 13.0002ZM20.6111 15.0002V16.0002H21.6111L21.6111 15.0002H20.6111ZM20.6111 15.0002V14.0002H19.6111V15.0002H20.6111ZM22.6111 17.0002H23.6111H22.6111ZM22.6111 15.0002V14.0002H21.6111V15.0002H22.6111ZM22.6111 15.0002V16.0002H23.6111V15.0002H22.6111ZM21.6111 13.0002H23.6111C23.6111 11.8957 22.7157 11.0002 21.6111 11.0002V13.0002ZM21.6111 13.0002L21.6111 13.0002V11.0002C20.5066 11.0002 19.6111 11.8957 19.6111 13.0002L21.6111 13.0002ZM21.6111 15.0002L21.6111 13.0002L19.6111 13.0002L19.6111 15.0002H21.6111ZM20.6111 16.0002H20.6111V14.0002H20.6111V16.0002ZM21.6111 17.0002V15.0002H19.6111V17.0002H21.6111ZM21.6111 17.0002H21.6111H19.6111C19.6111 18.1048 20.5066 19.0002 21.6111 19.0002V17.0002ZM21.6111 17.0002H21.6111V19.0002C22.7157 19.0002 23.6111 18.1048 23.6111 17.0002H21.6111ZM21.6111 15.0002L21.6111 17.0002H23.6111L23.6111 15.0002H21.6111ZM22.6111 14.0002H22.6111V16.0002H22.6111V14.0002ZM21.6111 13.0002L21.6111 15.0002H23.6111L23.6111 13.0002L21.6111 13.0002Z" fill="white" mask="url(#path-9-outside-1)"/>
<mask id="path-11-outside-2" maskUnits="userSpaceOnUse" x="32.5" y="11.0002" width="4" height="8" fill="black">
<rect fill="white" x="32.5" y="11.0002" width="4" height="8"/>
<path fill-rule="evenodd" clip-rule="evenodd" d="M35.5 13.0002C35.5 12.448 35.0523 12.0002 34.5 12.0002C33.9477 12.0002 33.5 12.448 33.5 13.0002V15.0002H33.5L33.5 17.0002C33.5 17.5525 33.9477 18.0002 34.5 18.0002C35.0523 18.0002 35.5 17.5525 35.5 17.0002L35.5 15.0002H35.5L35.5 13.0002Z"/>
</mask>
<path fill-rule="evenodd" clip-rule="evenodd" d="M35.5 13.0002C35.5 12.448 35.0523 12.0002 34.5 12.0002C33.9477 12.0002 33.5 12.448 33.5 13.0002V15.0002H33.5L33.5 17.0002C33.5 17.5525 33.9477 18.0002 34.5 18.0002C35.0523 18.0002 35.5 17.5525 35.5 17.0002L35.5 15.0002H35.5L35.5 13.0002Z" fill="#1A1A1A"/>
<path d="M35.5 13.0002L34.5 13.0002V13.0002L35.5 13.0002ZM33.5 15.0002H32.5V16.0002H33.5V15.0002ZM33.5 15.0002H34.5L34.5 14.0002H33.5V15.0002ZM33.5 17.0002H34.5H33.5ZM35.5 17.0002H34.5H35.5ZM35.5 15.0002H36.5L36.5 14.0002H35.5V15.0002ZM35.5 15.0002H34.5L34.5 16.0002H35.5V15.0002ZM34.5 13.0002L34.5 13.0002L36.5 13.0002C36.5 11.8957 35.6046 11.0002 34.5 11.0002V13.0002ZM34.5 13.0002V13.0002V11.0002C33.3954 11.0002 32.5 11.8957 32.5 13.0002H34.5ZM34.5 15.0002V13.0002H32.5V15.0002H34.5ZM33.5 14.0002H33.5V16.0002H33.5V14.0002ZM34.5 17.0002L34.5 15.0002H32.5L32.5 17.0002H34.5ZM34.5 17.0002H34.5H32.5C32.5 18.1048 33.3954 19.0002 34.5 19.0002V17.0002ZM34.5 17.0002V19.0002C35.6046 19.0002 36.5 18.1048 36.5 17.0002H34.5ZM34.5 15.0002L34.5 17.0002H36.5L36.5 15.0002H34.5ZM35.5 16.0002H35.5V14.0002H35.5V16.0002ZM34.5 13.0002L34.5 15.0002H36.5V13.0002L34.5 13.0002Z" fill="white" mask="url(#path-11-outside-2)"/>
</svg>