<svg width="64" height="65" xmlns="http://www.w3.org/2000/svg" xmlns:xlink="http://www.w3.org/1999/xlink"><defs><path d="M3 0h13.663a3 3 0 013 3v12.892a3 3 0 01-3 3H3a3 3 0 01-3-3V3a3 3 0 013-3z" id="a"/></defs><g fill="none" fill-rule="evenodd"><circle cx="32" cy="32" r="32" transform="translate(0 .538)" fill="#F5F5F5"/><g transform="rotate(90 9.639 32.807)"><mask id="b" fill="#fff"><use xlink:href="#a"/></mask><use fill="#CADA2A" xlink:href="#a"/><g fill="#FFF" opacity=".3" mask="url(#b)"><path d="M-27.37-32.958c0 .419-.322.759-.718.759-.396 0-.717-.34-.717-.76 0-.419.32-.759.717-.759.396 0 .717.34.717.76M-30.062-30.07c0 .419-.321.759-.717.759-.396 0-.718-.34-.718-.76 0-.419.322-.759.718-.759.396 0 .717.34.717.76M-21.919-32.958c0 .419-.321.759-.717.759-.396 0-.718-.34-.718-.76 0-.419.322-.759.718-.759.396 0 .717.34.717.76M-24.61-30.07c0 .419-.321.759-.718.759-.396 0-.717-.34-.717-.76 0-.419.321-.759.717-.759.397 0 .718.34.718.76M-16.465-32.958c0 .419-.321.759-.718.759-.396 0-.717-.34-.717-.76 0-.419.321-.759.717-.759.397 0 .718.34.718.76M-19.156-30.07c0 .419-.322.759-.718.759-.396 0-.717-.34-.717-.76 0-.419.32-.759.717-.759.396 0 .718.34.718.76M-27.37-27.186c0 .42-.322.76-.718.76-.396 0-.717-.34-.717-.76s.32-.76.717-.76c.396 0 .717.34.717.76M-30.062-24.298c0 .42-.321.76-.717.76-.396 0-.718-.34-.718-.76s.322-.759.718-.759c.396 0 .717.34.717.76M-21.919-27.186c0 .42-.321.76-.717.76-.396 0-.718-.34-.718-.76s.322-.76.718-.76c.396 0 .717.34.717.76M-24.61-24.298c0 .42-.321.76-.718.76-.396 0-.717-.34-.717-.76s.321-.759.717-.759c.397 0 .718.34.718.76M-16.465-27.186c0 .42-.321.76-.718.76-.396 0-.717-.34-.717-.76s.321-.76.717-.76c.397 0 .718.34.718.76M-19.156-24.298c0 .42-.322.76-.718.76-.396 0-.717-.34-.717-.76s.32-.759.717-.759c.396 0 .718.34.718.76M-27.373-21.415c0 .419-.32.759-.717.759-.396 0-.717-.34-.717-.76 0-.419.32-.759.717-.759.396 0 .717.34.717.76M-30.064-18.528c0 .42-.321.76-.718.76-.396 0-.717-.34-.717-.76 0-.419.321-.759.717-.759.397 0 .718.34.718.76M-21.921-21.415c0 .419-.321.759-.718.759-.396 0-.717-.34-.717-.76 0-.419.321-.759.717-.759.397 0 .718.34.718.76M-24.612-18.528c0 .42-.322.76-.718.76-.396 0-.717-.34-.717-.76 0-.419.32-.759.717-.759.396 0 .718.34.718.76M-16.467-21.415c0 .419-.322.759-.718.759-.396 0-.717-.34-.717-.76 0-.419.321-.759.717-.759.396 0 .718.34.718.76M-19.159-18.528c0 .42-.321.76-.717.76-.396 0-.717-.34-.717-.76 0-.419.32-.759.717-.759.396 0 .717.34.717.76M-10.968-32.958c0 .419-.322.759-.718.759-.396 0-.717-.34-.717-.76 0-.419.321-.759.717-.759.396 0 .718.34.718.76M-13.66-30.07c0 .419-.321.759-.717.759-.396 0-.718-.34-.718-.76 0-.419.322-.759.718-.759.396 0 .717.34.717.76M-5.517-32.958c0 .419-.32.759-.717.759-.396 0-.717-.34-.717-.76 0-.419.32-.759.717-.759.396 0 .717.34.717.76M-8.208-30.07c0 .419-.321.759-.718.759-.396 0-.717-.34-.717-.76 0-.419.321-.759.717-.759.397 0 .718.34.718.76M-.063-32.958c0 .419-.321.759-.717.759-.397 0-.718-.34-.718-.76 0-.419.321-.759.718-.759.396 0 .717.34.717.76M-2.754-30.07c0 .419-.322.759-.718.759-.396 0-.717-.34-.717-.76 0-.419.32-.759.717-.759.396 0 .718.34.718.76M-10.968-27.186c0 .42-.322.76-.718.76-.396 0-.717-.34-.717-.76s.321-.76.717-.76c.396 0 .718.34.718.76M-13.66-24.298c0 .42-.321.76-.717.76-.396 0-.718-.34-.718-.76s.322-.759.718-.759c.396 0 .717.34.717.76M-5.517-27.186c0 .42-.32.76-.717.76-.396 0-.717-.34-.717-.76s.32-.76.717-.76c.396 0 .717.34.717.76M-8.208-24.298c0 .42-.321.76-.718.76-.396 0-.717-.34-.717-.76s.321-.759.717-.759c.397 0 .718.34.718.76M-.063-27.186c0 .42-.321.76-.717.76-.397 0-.718-.34-.718-.76s.321-.76.718-.76c.396 0 .717.34.717.76M-2.754-24.298c0 .42-.322.76-.718.76-.396 0-.717-.34-.717-.76s.32-.759.717-.759c.396 0 .718.34.718.76M-10.97-21.415c0 .419-.322.759-.718.759-.396 0-.718-.34-.718-.76 0-.419.322-.759.718-.759.396 0 .717.34.717.76M-13.662-18.528c0 .42-.321.76-.718.76-.396 0-.717-.34-.717-.76 0-.419.321-.759.717-.759.397 0 .718.34.718.76M-5.519-21.415c0 .419-.321.759-.717.759-.397 0-.718-.34-.718-.76 0-.419.321-.759.718-.759.396 0 .717.34.717.76M-8.21-18.528c0 .42-.322.76-.718.76-.396 0-.717-.34-.717-.76 0-.419.321-.759.717-.759.396 0 .718.34.718.76M-.065-21.415c0 .419-.321.759-.718.759-.396 0-.717-.34-.717-.76 0-.419.321-.759.717-.759.397 0 .718.34.718.76M-2.757-18.528c0 .42-.32.76-.717.76-.396 0-.717-.34-.717-.76 0-.419.32-.759.717-.759.396 0 .717.34.717.76M5.434-32.958c0 .419-.322.759-.718.759-.396 0-.717-.34-.717-.76 0-.419.321-.759.717-.759.396 0 .718.34.718.76M2.742-30.07c0 .419-.321.759-.717.759-.396 0-.717-.34-.717-.76 0-.419.32-.759.717-.759.396 0 .717.34.717.76M10.885-32.958c0 .419-.32.759-.717.759-.396 0-.717-.34-.717-.76 0-.419.32-.759.717-.759.396 0 .717.34.717.76M8.194-30.07c0 .419-.321.759-.718.759-.396 0-.717-.34-.717-.76 0-.419.321-.759.717-.759.397 0 .718.34.718.76M16.34-32.958c0 .419-.322.759-.718.759-.397 0-.718-.34-.718-.76 0-.419.321-.759.718-.759.396 0 .717.34.717.76M13.648-30.07c0 .419-.321.759-.718.759-.396 0-.717-.34-.717-.76 0-.419.32-.759.717-.759.397 0 .718.34.718.76M5.434-27.186c0 .42-.322.76-.718.76-.396 0-.717-.34-.717-.76s.321-.76.717-.76c.396 0 .718.34.718.76M2.742-24.298c0 .42-.321.76-.717.76-.396 0-.717-.34-.717-.76s.32-.759.717-.759c.396 0 .717.34.717.76M10.885-27.186c0 .42-.32.76-.717.76-.396 0-.717-.34-.717-.76s.32-.76.717-.76c.396 0 .717.34.717.76M8.194-24.298c0 .42-.321.76-.718.76-.396 0-.717-.34-.717-.76s.321-.759.717-.759c.397 0 .718.34.718.76M16.34-27.186c0 .42-.322.76-.718.76-.397 0-.718-.34-.718-.76s.321-.76.718-.76c.396 0 .717.34.717.76M13.648-24.298c0 .42-.321.76-.718.76-.396 0-.717-.34-.717-.76s.32-.759.717-.759c.397 0 .718.34.718.76M5.431-21.415c0 .419-.32.759-.717.759-.396 0-.718-.34-.718-.76 0-.419.322-.759.718-.759.396 0 .717.34.717.76M2.74-18.528c0 .42-.321.76-.717.76-.397 0-.718-.34-.718-.76 0-.419.321-.759.718-.759.396 0 .717.34.717.76M10.883-21.415c0 .419-.321.759-.717.759-.397 0-.718-.34-.718-.76 0-.419.321-.759.718-.759.396 0 .717.34.717.76M8.192-18.528c0 .42-.322.76-.718.76-.396 0-.717-.34-.717-.76 0-.419.321-.759.717-.759.396 0 .718.34.718.76M16.337-21.415c0 .419-.321.759-.718.759-.396 0-.717-.34-.717-.76 0-.419.321-.759.717-.759.397 0 .718.34.718.76M13.646-18.528c0 .42-.322.76-.718.76-.396 0-.717-.34-.717-.76 0-.419.32-.759.717-.759.396 0 .718.34.718.76M21.836-32.958c0 .419-.321.759-.718.759-.396 0-.717-.34-.717-.76 0-.419.32-.759.717-.759.397 0 .718.34.718.76M19.144-30.07c0 .419-.32.759-.717.759-.396 0-.717-.34-.717-.76 0-.419.32-.759.717-.759.396 0 .717.34.717.76M27.287-32.958c0 .419-.32.759-.717.759-.396 0-.717-.34-.717-.76 0-.419.32-.759.717-.759.396 0 .717.34.717.76M24.596-30.07c0 .419-.321.759-.717.759-.397 0-.718-.34-.718-.76 0-.419.321-.759.718-.759.396 0 .717.34.717.76M32.741-32.958c0 .419-.321.759-.717.759-.396 0-.718-.34-.718-.76 0-.419.322-.759.718-.759.396 0 .717.34.717.76M30.05-30.07c0 .419-.322.759-.718.759-.396 0-.717-.34-.717-.76 0-.419.321-.759.717-.759.396 0 .718.34.718.76M21.836-27.186c0 .42-.321.76-.718.76-.396 0-.717-.34-.717-.76s.32-.76.717-.76c.397 0 .718.34.718.76M19.144-24.298c0 .42-.32.76-.717.76-.396 0-.717-.34-.717-.76s.32-.759.717-.759c.396 0 .717.34.717.76M27.287-27.186c0 .42-.32.76-.717.76-.396 0-.717-.34-.717-.76s.32-.76.717-.76c.396 0 .717.34.717.76M24.596-24.298c0 .42-.321.76-.717.76-.397 0-.718-.34-.718-.76s.321-.759.718-.759c.396 0 .717.34.717.76M32.741-27.186c0 .42-.321.76-.717.76-.396 0-.718-.34-.718-.76s.322-.76.718-.76c.396 0 .717.34.717.76M30.05-24.298c0 .42-.322.76-.718.76-.396 0-.717-.34-.717-.76s.321-.759.717-.759c.396 0 .718.34.718.76M21.834-21.415c0 .419-.322.759-.718.759-.396 0-.717-.34-.717-.76 0-.419.32-.759.717-.759.396 0 .718.34.718.76M19.142-18.528c0 .42-.321.76-.717.76-.397 0-.718-.34-.718-.76 0-.419.321-.759.718-.759.396 0 .717.34.717.76M27.285-21.415c0 .419-.321.759-.717.759-.397 0-.718-.34-.718-.76 0-.419.321-.759.718-.759.396 0 .717.34.717.76M24.594-18.528c0 .42-.321.76-.718.76-.396 0-.717-.34-.717-.76 0-.419.321-.759.717-.759.397 0 .718.34.718.76M32.739-21.415c0 .419-.321.759-.718.759-.396 0-.717-.34-.717-.76 0-.419.321-.759.717-.759.397 0 .718.34.718.76M30.047-18.528c0 .42-.32.76-.717.76-.396 0-.717-.34-.717-.76 0-.419.32-.759.717-.759.396 0 .717.34.717.76M38.238-32.958c0 .419-.322.759-.718.759-.396 0-.717-.34-.717-.76 0-.419.321-.759.717-.759.396 0 .718.34.718.76M35.546-30.07c0 .419-.32.759-.717.759-.396 0-.717-.34-.717-.76 0-.419.32-.759.717-.759.396 0 .717.34.717.76M43.69-32.958c0 .419-.322.759-.718.759-.396 0-.717-.34-.717-.76 0-.419.32-.759.717-.759.396 0 .717.34.717.76M40.998-30.07c0 .419-.321.759-.718.759-.396 0-.717-.34-.717-.76 0-.419.321-.759.717-.759.397 0 .718.34.718.76M49.143-32.958c0 .419-.32.759-.717.759-.397 0-.717-.34-.717-.76 0-.419.32-.759.717-.759.396 0 .717.34.717.76M46.452-30.07c0 .419-.321.759-.718.759-.396 0-.717-.34-.717-.76 0-.419.321-.759.717-.759.397 0 .718.34.718.76M38.238-27.186c0 .42-.322.76-.718.76-.396 0-.717-.34-.717-.76s.321-.76.717-.76c.396 0 .718.34.718.76M35.546-24.298c0 .42-.32.76-.717.76-.396 0-.717-.34-.717-.76s.32-.759.717-.759c.396 0 .717.34.717.76M43.69-27.186c0 .42-.322.76-.718.76-.396 0-.717-.34-.717-.76s.32-.76.717-.76c.396 0 .717.34.717.76M40.998-24.298c0 .42-.321.76-.718.76-.396 0-.717-.34-.717-.76s.321-.759.717-.759c.397 0 .718.34.718.76M49.143-27.186c0 .42-.32.76-.717.76-.397 0-.717-.34-.717-.76s.32-.76.717-.76c.396 0 .717.34.717.76M46.452-24.298c0 .42-.321.76-.718.76-.396 0-.717-.34-.717-.76s.321-.759.717-.759c.397 0 .718.34.718.76M38.235-21.415c0 .419-.32.759-.717.759-.396 0-.717-.34-.717-.76 0-.419.32-.759.717-.759.396 0 .717.34.717.76M35.544-18.528c0 .42-.321.76-.717.76-.396 0-.718-.34-.718-.76 0-.419.322-.759.718-.759.396 0 .717.34.717.76M43.687-21.415c0 .419-.321.759-.717.759-.397 0-.718-.34-.718-.76 0-.419.321-.759.718-.759.396 0 .717.34.717.76M40.996-18.528c0 .42-.321.76-.718.76-.396 0-.717-.34-.717-.76 0-.419.321-.759.717-.759.397 0 .718.34.718.76M49.141-21.415c0 .419-.321.759-.718.759-.396 0-.717-.34-.717-.76 0-.419.321-.759.717-.759.397 0 .718.34.718.76M46.45-18.528c0 .42-.322.76-.718.76-.396 0-.717-.34-.717-.76 0-.419.32-.759.717-.759.396 0 .717.34.717.76M-27.37-15.544c0 .42-.322.76-.718.76-.396 0-.717-.34-.717-.76s.32-.759.717-.759c.396 0 .717.34.717.76M-30.062-12.656c0 .42-.321.76-.717.76-.396 0-.718-.34-.718-.76 0-.419.322-.76.718-.76.396 0 .717.341.717.76M-21.919-15.544c0 .42-.321.76-.717.76-.396 0-.718-.34-.718-.76s.322-.759.718-.759c.396 0 .717.34.717.76M-24.61-12.656c0 .42-.321.76-.718.76-.396 0-.717-.34-.717-.76 0-.419.321-.76.717-.76.397 0 .718.341.718.76M-16.465-15.544c0 .42-.321.76-.718.76-.396 0-.717-.34-.717-.76s.321-.759.717-.759c.397 0 .718.34.718.76M-19.156-12.656c0 .42-.322.76-.718.76-.396 0-.717-.34-.717-.76 0-.419.32-.76.717-.76.396 0 .718.341.718.76M-27.37-9.771c0 .419-.322.759-.718.759-.396 0-.717-.34-.717-.76 0-.419.32-.758.717-.758.396 0 .717.34.717.759M-30.062-6.883c0 .419-.321.759-.717.759-.396 0-.718-.34-.718-.76 0-.418.322-.758.718-.758.396 0 .717.34.717.759M-21.919-9.771c0 .419-.321.759-.717.759-.396 0-.718-.34-.718-.76 0-.419.322-.758.718-.758.396 0 .717.34.717.759M-24.61-6.883c0 .419-.321.759-.718.759-.396 0-.717-.34-.717-.76 0-.418.321-.758.717-.758.397 0 .718.34.718.759M-16.465-9.771c0 .419-.321.759-.718.759-.396 0-.717-.34-.717-.76 0-.419.321-.758.717-.758.397 0 .718.34.718.759M-19.156-6.883c0 .419-.322.759-.718.759-.396 0-.717-.34-.717-.76 0-.418.32-.758.717-.758.396 0 .718.34.718.759M-27.373-4c0 .418-.32.758-.717.758-.396 0-.717-.34-.717-.759 0-.42.32-.76.717-.76.396 0 .717.34.717.76M-30.064-1.113c0 .42-.321.76-.718.76-.396 0-.717-.34-.717-.76 0-.419.321-.76.717-.76.397 0 .718.341.718.76M-21.921-4c0 .418-.321.758-.718.758-.396 0-.717-.34-.717-.759 0-.42.321-.76.717-.76.397 0 .718.34.718.76M-24.612-1.113c0 .42-.322.76-.718.76-.396 0-.717-.34-.717-.76 0-.419.32-.76.717-.76.396 0 .718.341.718.76M-16.467-4c0 .418-.322.758-.718.758-.396 0-.717-.34-.717-.759 0-.42.321-.76.717-.76.396 0 .718.34.718.76M-19.159-1.113c0 .42-.321.76-.717.76-.396 0-.717-.34-.717-.76 0-.419.32-.76.717-.76.396 0 .717.341.717.76M-10.968-15.544c0 .42-.322.76-.718.76-.396 0-.717-.34-.717-.76s.321-.759.717-.759c.396 0 .718.34.718.76M-13.66-12.656c0 .42-.321.76-.717.76-.396 0-.718-.34-.718-.76 0-.419.322-.76.718-.76.396 0 .717.341.717.76M-5.517-15.544c0 .42-.32.76-.717.76-.396 0-.717-.34-.717-.76s.32-.759.717-.759c.396 0 .717.34.717.76M-8.208-12.656c0 .42-.321.76-.718.76-.396 0-.717-.34-.717-.76 0-.419.321-.76.717-.76.397 0 .718.341.718.76M-.063-15.544c0 .42-.321.76-.717.76-.397 0-.718-.34-.718-.76s.321-.759.718-.759c.396 0 .717.34.717.76M-2.754-12.656c0 .42-.322.76-.718.76-.396 0-.717-.34-.717-.76 0-.419.32-.76.717-.76.396 0 .718.341.718.76M-10.968-9.771c0 .419-.322.759-.718.759-.396 0-.717-.34-.717-.76 0-.419.321-.758.717-.758.396 0 .718.34.718.759M-13.66-6.883c0 .419-.321.759-.717.759-.396 0-.718-.34-.718-.76 0-.418.322-.758.718-.758.396 0 .717.34.717.759M-5.517-9.771c0 .419-.32.759-.717.759-.396 0-.717-.34-.717-.76 0-.419.32-.758.717-.758.396 0 .717.34.717.759M-8.208-6.883c0 .419-.321.759-.718.759-.396 0-.717-.34-.717-.76 0-.418.321-.758.717-.758.397 0 .718.34.718.759M-.063-9.771c0 .419-.321.759-.717.759-.397 0-.718-.34-.718-.76 0-.419.321-.758.718-.758.396 0 .717.34.717.759M-2.754-6.883c0 .419-.322.759-.718.759-.396 0-.717-.34-.717-.76 0-.418.32-.758.717-.758.396 0 .718.34.718.759M-10.97-4c0 .418-.322.758-.718.758-.396 0-.718-.34-.718-.759 0-.42.322-.76.718-.76.396 0 .717.34.717.76M-13.662-1.113c0 .42-.321.76-.718.76-.396 0-.717-.34-.717-.76 0-.419.321-.76.717-.76.397 0 .718.341.718.76M-5.519-4c0 .418-.321.758-.717.758-.397 0-.718-.34-.718-.759 0-.42.321-.76.718-.76.396 0 .717.34.717.76M-8.21-1.113c0 .42-.322.76-.718.76-.396 0-.717-.34-.717-.76 0-.419.321-.76.717-.76.396 0 .718.341.718.76M-.065-4c0 .418-.321.758-.718.758-.396 0-.717-.34-.717-.759 0-.42.321-.76.717-.76.397 0 .718.34.718.76M-2.757-1.113c0 .42-.32.76-.717.76-.396 0-.717-.34-.717-.76 0-.419.32-.76.717-.76.396 0 .717.341.717.76M5.434-15.544c0 .42-.322.76-.718.76-.396 0-.717-.34-.717-.76s.321-.759.717-.759c.396 0 .718.34.718.76M2.742-12.656c0 .42-.321.76-.717.76-.396 0-.717-.34-.717-.76 0-.419.32-.76.717-.76.396 0 .717.341.717.76M10.885-15.544c0 .42-.32.76-.717.76-.396 0-.717-.34-.717-.76s.32-.759.717-.759c.396 0 .717.34.717.76M8.194-12.656c0 .42-.321.76-.718.76-.396 0-.717-.34-.717-.76 0-.419.321-.76.717-.76.397 0 .718.341.718.76M16.34-15.544c0 .42-.322.76-.718.76-.397 0-.718-.34-.718-.76s.321-.759.718-.759c.396 0 .717.34.717.76M13.648-12.656c0 .42-.321.76-.718.76-.396 0-.717-.34-.717-.76 0-.419.32-.76.717-.76.397 0 .718.341.718.76M5.434-9.771c0 .419-.322.759-.718.759-.396 0-.717-.34-.717-.76 0-.419.321-.758.717-.758.396 0 .718.34.718.759M2.742-6.883c0 .419-.321.759-.717.759-.396 0-.717-.34-.717-.76 0-.418.32-.758.717-.758.396 0 .717.34.717.759M10.885-9.771c0 .419-.32.759-.717.759-.396 0-.717-.34-.717-.76 0-.419.32-.758.717-.758.396 0 .717.34.717.759M8.194-6.883c0 .419-.321.759-.718.759-.396 0-.717-.34-.717-.76 0-.418.321-.758.717-.758.397 0 .718.34.718.759M16.34-9.771c0 .419-.322.759-.718.759-.397 0-.718-.34-.718-.76 0-.419.321-.758.718-.758.396 0 .717.34.717.759M13.648-6.883c0 .419-.321.759-.718.759-.396 0-.717-.34-.717-.76 0-.418.32-.758.717-.758.397 0 .718.34.718.759M5.431-4c0 .418-.32.758-.717.758-.396 0-.718-.34-.718-.759 0-.42.322-.76.718-.76.396 0 .717.34.717.76M2.74-1.113c0 .42-.321.76-.717.76-.397 0-.718-.34-.718-.76 0-.419.321-.76.718-.76.396 0 .717.341.717.76M10.883-4c0 .418-.321.758-.717.758-.397 0-.718-.34-.718-.759 0-.42.321-.76.718-.76.396 0 .717.34.717.76M8.192-1.113c0 .42-.322.76-.718.76-.396 0-.717-.34-.717-.76 0-.419.321-.76.717-.76.396 0 .718.341.718.76M16.337-4c0 .418-.321.758-.718.758-.396 0-.717-.34-.717-.759 0-.42.321-.76.717-.76.397 0 .718.34.718.76M13.646-1.113c0 .42-.322.76-.718.76-.396 0-.717-.34-.717-.76 0-.419.32-.76.717-.76.396 0 .718.341.718.76M21.836-15.544c0 .42-.321.76-.718.76-.396 0-.717-.34-.717-.76s.32-.759.717-.759c.397 0 .718.34.718.76M19.144-12.656c0 .42-.32.76-.717.76-.396 0-.717-.34-.717-.76 0-.419.32-.76.717-.76.396 0 .717.341.717.76M27.287-15.544c0 .42-.32.76-.717.76-.396 0-.717-.34-.717-.76s.32-.759.717-.759c.396 0 .717.34.717.76M24.596-12.656c0 .42-.321.76-.717.76-.397 0-.718-.34-.718-.76 0-.419.321-.76.718-.76.396 0 .717.341.717.76M32.741-15.544c0 .42-.321.76-.717.76-.396 0-.718-.34-.718-.76s.322-.759.718-.759c.396 0 .717.34.717.76M30.05-12.656c0 .42-.322.76-.718.76-.396 0-.717-.34-.717-.76 0-.419.321-.76.717-.76.396 0 .718.341.718.76M21.836-9.771c0 .419-.321.759-.718.759-.396 0-.717-.34-.717-.76 0-.419.32-.758.717-.758.397 0 .718.34.718.759M19.144-6.883c0 .419-.32.759-.717.759-.396 0-.717-.34-.717-.76 0-.418.32-.758.717-.758.396 0 .717.34.717.759M27.287-9.771c0 .419-.32.759-.717.759-.396 0-.717-.34-.717-.76 0-.419.32-.758.717-.758.396 0 .717.34.717.759M24.596-6.883c0 .419-.321.759-.717.759-.397 0-.718-.34-.718-.76 0-.418.321-.758.718-.758.396 0 .717.34.717.759M32.741-9.771c0 .419-.321.759-.717.759-.396 0-.718-.34-.718-.76 0-.419.322-.758.718-.758.396 0 .717.34.717.759M30.05-6.883c0 .419-.322.759-.718.759-.396 0-.717-.34-.717-.76 0-.418.321-.758.717-.758.396 0 .718.34.718.759M21.834-4c0 .418-.322.758-.718.758-.396 0-.717-.34-.717-.759 0-.42.32-.76.717-.76.396 0 .718.34.718.76M19.142-1.113c0 .42-.321.76-.717.76-.397 0-.718-.34-.718-.76 0-.419.321-.76.718-.76.396 0 .717.341.717.76M27.285-4c0 .418-.321.758-.717.758-.397 0-.718-.34-.718-.759 0-.42.321-.76.718-.76.396 0 .717.34.717.76M24.594-1.113c0 .42-.321.76-.718.76-.396 0-.717-.34-.717-.76 0-.419.321-.76.717-.76.397 0 .718.341.718.76M32.739-4c0 .418-.321.758-.718.758-.396 0-.717-.34-.717-.759 0-.42.321-.76.717-.76.397 0 .718.34.718.76M30.047-1.113c0 .42-.32.76-.717.76-.396 0-.717-.34-.717-.76 0-.419.32-.76.717-.76.396 0 .717.341.717.76M38.238-15.544c0 .42-.322.76-.718.76-.396 0-.717-.34-.717-.76s.321-.759.717-.759c.396 0 .718.34.718.76M35.546-12.656c0 .42-.32.76-.717.76-.396 0-.717-.34-.717-.76 0-.419.32-.76.717-.76.396 0 .717.341.717.76M43.69-15.544c0 .42-.322.76-.718.76-.396 0-.717-.34-.717-.76s.32-.759.717-.759c.396 0 .717.34.717.76M40.998-12.656c0 .42-.321.76-.718.76-.396 0-.717-.34-.717-.76 0-.419.321-.76.717-.76.397 0 .718.341.718.76M49.143-15.544c0 .42-.32.76-.717.76-.397 0-.717-.34-.717-.76s.32-.759.717-.759c.396 0 .717.34.717.76M46.452-12.656c0 .42-.321.76-.718.76-.396 0-.717-.34-.717-.76 0-.419.321-.76.717-.76.397 0 .718.341.718.76M38.238-9.771c0 .419-.322.759-.718.759-.396 0-.717-.34-.717-.76 0-.419.321-.758.717-.758.396 0 .718.34.718.759M35.546-6.883c0 .419-.32.759-.717.759-.396 0-.717-.34-.717-.76 0-.418.32-.758.717-.758.396 0 .717.34.717.759M43.69-9.771c0 .419-.322.759-.718.759-.396 0-.717-.34-.717-.76 0-.419.32-.758.717-.758.396 0 .717.34.717.759M40.998-6.883c0 .419-.321.759-.718.759-.396 0-.717-.34-.717-.76 0-.418.321-.758.717-.758.397 0 .718.34.718.759M49.143-9.771c0 .419-.32.759-.717.759-.397 0-.717-.34-.717-.76 0-.419.32-.758.717-.758.396 0 .717.34.717.759M46.452-6.883c0 .419-.321.759-.718.759-.396 0-.717-.34-.717-.76 0-.418.321-.758.717-.758.397 0 .718.34.718.759M38.235-4c0 .418-.32.758-.717.758-.396 0-.717-.34-.717-.759 0-.42.32-.76.717-.76.396 0 .717.34.717.76M35.544-1.113c0 .42-.321.76-.717.76-.396 0-.718-.34-.718-.76 0-.419.322-.76.718-.76.396 0 .717.341.717.76M43.687-4c0 .418-.321.758-.717.758-.397 0-.718-.34-.718-.759 0-.42.321-.76.718-.76.396 0 .717.34.717.76M40.996-1.113c0 .42-.321.76-.718.76-.396 0-.717-.34-.717-.76 0-.419.321-.76.717-.76.397 0 .718.341.718.76M49.141-4c0 .418-.321.758-.718.758-.396 0-.717-.34-.717-.759 0-.42.321-.76.717-.76.397 0 .718.34.718.76M46.45-1.113c0 .42-.322.76-.718.76-.396 0-.717-.34-.717-.76 0-.419.32-.76.717-.76.396 0 .717.341.717.76M-27.37 1.87c0 .42-.322.76-.718.76-.396 0-.717-.34-.717-.76 0-.418.32-.758.717-.758.396 0 .717.34.717.759M-30.062 4.759c0 .419-.321.76-.717.76-.396 0-.718-.341-.718-.76 0-.42.322-.76.718-.76.396 0 .717.34.717.76M-21.919 1.87c0 .42-.321.76-.717.76-.396 0-.718-.34-.718-.76 0-.418.322-.758.718-.758.396 0 .717.34.717.759M-24.61 4.759c0 .419-.321.76-.718.76-.396 0-.717-.341-.717-.76 0-.42.321-.76.717-.76.397 0 .718.34.718.76M-16.465 1.87c0 .42-.321.76-.718.76-.396 0-.717-.34-.717-.76 0-.418.321-.758.717-.758.397 0 .718.34.718.759M-19.156 4.759c0 .419-.322.76-.718.76-.396 0-.717-.341-.717-.76 0-.42.32-.76.717-.76.396 0 .718.34.718.76M-27.37 7.643c0 .42-.322.76-.718.76-.396 0-.717-.34-.717-.76 0-.419.32-.759.717-.759.396 0 .717.34.717.76M-30.062 10.532c0 .419-.321.759-.717.759-.396 0-.718-.34-.718-.76 0-.419.322-.759.718-.759.396 0 .717.34.717.76M-21.919 7.643c0 .42-.321.76-.717.76-.396 0-.718-.34-.718-.76 0-.419.322-.759.718-.759.396 0 .717.34.717.76M-24.61 10.532c0 .419-.321.759-.718.759-.396 0-.717-.34-.717-.76 0-.419.321-.759.717-.759.397 0 .718.34.718.76M-16.465 7.643c0 .42-.321.76-.718.76-.396 0-.717-.34-.717-.76 0-.419.321-.759.717-.759.397 0 .718.34.718.76M-19.156 10.532c0 .419-.322.759-.718.759-.396 0-.717-.34-.717-.76 0-.419.32-.759.717-.759.396 0 .718.34.718.76M-27.373 13.414c0 .419-.32.759-.717.759-.396 0-.717-.34-.717-.76 0-.418.32-.758.717-.758.396 0 .717.34.717.759M-30.064 16.302c0 .419-.321.76-.718.76-.396 0-.717-.341-.717-.76 0-.42.321-.76.717-.76.397 0 .718.34.718.76M-21.921 13.414c0 .419-.321.759-.718.759-.396 0-.717-.34-.717-.76 0-.418.321-.758.717-.758.397 0 .718.34.718.759M-24.612 16.302c0 .419-.322.76-.718.76-.396 0-.717-.341-.717-.76 0-.42.32-.76.717-.76.396 0 .718.34.718.76M-16.467 13.414c0 .419-.322.759-.718.759-.396 0-.717-.34-.717-.76 0-.418.321-.758.717-.758.396 0 .718.34.718.759M-19.159 16.302c0 .419-.321.76-.717.76-.396 0-.717-.341-.717-.76 0-.42.32-.76.717-.76.396 0 .717.34.717.76M-10.968 1.87c0 .42-.322.76-.718.76-.396 0-.717-.34-.717-.76 0-.418.321-.758.717-.758.396 0 .718.34.718.759M-13.66 4.759c0 .419-.321.76-.717.76-.396 0-.718-.341-.718-.76 0-.42.322-.76.718-.76.396 0 .717.34.717.76M-5.517 1.87c0 .42-.32.76-.717.76-.396 0-.717-.34-.717-.76 0-.418.32-.758.717-.758.396 0 .717.34.717.759M-8.208 4.759c0 .419-.321.76-.718.76-.396 0-.717-.341-.717-.76 0-.42.321-.76.717-.76.397 0 .718.34.718.76M-.063 1.87c0 .42-.321.76-.717.76-.397 0-.718-.34-.718-.76 0-.418.321-.758.718-.758.396 0 .717.34.717.759M-2.754 4.759c0 .419-.322.76-.718.76-.396 0-.717-.341-.717-.76 0-.42.32-.76.717-.76.396 0 .718.34.718.76M-10.968 7.643c0 .42-.322.76-.718.76-.396 0-.717-.34-.717-.76 0-.419.321-.759.717-.759.396 0 .718.34.718.76M-13.66 10.532c0 .419-.321.759-.717.759-.396 0-.718-.34-.718-.76 0-.419.322-.759.718-.759.396 0 .717.34.717.76M-5.517 7.643c0 .42-.32.76-.717.76-.396 0-.717-.34-.717-.76 0-.419.32-.759.717-.759.396 0 .717.34.717.76M-8.208 10.532c0 .419-.321.759-.718.759-.396 0-.717-.34-.717-.76 0-.419.321-.759.717-.759.397 0 .718.34.718.76M-.063 7.643c0 .42-.321.76-.717.76-.397 0-.718-.34-.718-.76 0-.419.321-.759.718-.759.396 0 .717.34.717.76M-2.754 10.532c0 .419-.322.759-.718.759-.396 0-.717-.34-.717-.76 0-.419.32-.759.717-.759.396 0 .718.34.718.76M-10.97 13.414c0 .419-.322.759-.718.759-.396 0-.718-.34-.718-.76 0-.418.322-.758.718-.758.396 0 .717.34.717.759M-13.662 16.302c0 .419-.321.76-.718.76-.396 0-.717-.341-.717-.76 0-.42.321-.76.717-.76.397 0 .718.34.718.76M-5.519 13.414c0 .419-.321.759-.717.759-.397 0-.718-.34-.718-.76 0-.418.321-.758.718-.758.396 0 .717.34.717.759M-8.21 16.302c0 .419-.322.76-.718.76-.396 0-.717-.341-.717-.76 0-.42.321-.76.717-.76.396 0 .718.34.718.76M-.065 13.414c0 .419-.321.759-.718.759-.396 0-.717-.34-.717-.76 0-.418.321-.758.717-.758.397 0 .718.34.718.759M-2.757 16.302c0 .419-.32.76-.717.76-.396 0-.717-.341-.717-.76 0-.42.32-.76.717-.76.396 0 .717.34.717.76M5.434 1.87c0 .42-.322.76-.718.76C4.32 2.63 4 2.29 4 1.87c0-.418.321-.758.717-.758.396 0 .718.34.718.759M2.742 4.759c0 .419-.321.76-.717.76-.396 0-.717-.341-.717-.76 0-.42.32-.76.717-.76.396 0 .717.34.717.76M10.885 1.87c0 .42-.32.76-.717.76-.396 0-.717-.34-.717-.76 0-.418.32-.758.717-.758.396 0 .717.34.717.759M8.194 4.759c0 .419-.321.76-.718.76-.396 0-.717-.341-.717-.76 0-.42.321-.76.717-.76.397 0 .718.34.718.76M16.34 1.87c0 .42-.322.76-.718.76-.397 0-.718-.34-.718-.76 0-.418.321-.758.718-.758.396 0 .717.34.717.759M13.648 4.759c0 .419-.321.76-.718.76-.396 0-.717-.341-.717-.76 0-.42.32-.76.717-.76.397 0 .718.34.718.76M5.434 7.643c0 .42-.322.76-.718.76-.396 0-.717-.34-.717-.76 0-.419.321-.759.717-.759.396 0 .718.34.718.76M2.742 10.532c0 .419-.321.759-.717.759-.396 0-.717-.34-.717-.76 0-.419.32-.759.717-.759.396 0 .717.34.717.76M10.885 7.643c0 .42-.32.76-.717.76-.396 0-.717-.34-.717-.76 0-.419.32-.759.717-.759.396 0 .717.34.717.76M8.194 10.532c0 .419-.321.759-.718.759-.396 0-.717-.34-.717-.76 0-.419.321-.759.717-.759.397 0 .718.34.718.76M16.34 7.643c0 .42-.322.76-.718.76-.397 0-.718-.34-.718-.76 0-.419.321-.759.718-.759.396 0 .717.34.717.76M13.648 10.532c0 .419-.321.759-.718.759-.396 0-.717-.34-.717-.76 0-.419.32-.759.717-.759.397 0 .718.34.718.76M5.431 13.414c0 .419-.32.759-.717.759-.396 0-.718-.34-.718-.76 0-.418.322-.758.718-.758.396 0 .717.34.717.759M2.74 16.302c0 .419-.321.76-.717.76-.397 0-.718-.341-.718-.76 0-.42.321-.76.718-.76.396 0 .717.34.717.76M10.883 13.414c0 .419-.321.759-.717.759-.397 0-.718-.34-.718-.76 0-.418.321-.758.718-.758.396 0 .717.34.717.759M8.192 16.302c0 .419-.322.76-.718.76-.396 0-.717-.341-.717-.76 0-.42.321-.76.717-.76.396 0 .718.34.718.76M16.337 13.414c0 .419-.321.759-.718.759-.396 0-.717-.34-.717-.76 0-.418.321-.758.717-.758.397 0 .718.34.718.759M13.646 16.302c0 .419-.322.76-.718.76-.396 0-.717-.341-.717-.76 0-.42.32-.76.717-.76.396 0 .718.34.718.76M21.836 1.87c0 .42-.321.76-.718.76-.396 0-.717-.34-.717-.76 0-.418.32-.758.717-.758.397 0 .718.34.718.759M19.144 4.759c0 .419-.32.76-.717.76-.396 0-.717-.341-.717-.76 0-.42.32-.76.717-.76.396 0 .717.34.717.76M27.287 1.87c0 .42-.32.76-.717.76-.396 0-.717-.34-.717-.76 0-.418.32-.758.717-.758.396 0 .717.34.717.759M24.596 4.759c0 .419-.321.76-.717.76-.397 0-.718-.341-.718-.76 0-.42.321-.76.718-.76.396 0 .717.34.717.76M32.741 1.87c0 .42-.321.76-.717.76-.396 0-.718-.34-.718-.76 0-.418.322-.758.718-.758.396 0 .717.34.717.759M30.05 4.759c0 .419-.322.76-.718.76-.396 0-.717-.341-.717-.76 0-.42.321-.76.717-.76.396 0 .718.34.718.76M21.836 7.643c0 .42-.321.76-.718.76-.396 0-.717-.34-.717-.76 0-.419.32-.759.717-.759.397 0 .718.34.718.76M19.144 10.532c0 .419-.32.759-.717.759-.396 0-.717-.34-.717-.76 0-.419.32-.759.717-.759.396 0 .717.34.717.76M27.287 7.643c0 .42-.32.76-.717.76-.396 0-.717-.34-.717-.76 0-.419.32-.759.717-.759.396 0 .717.34.717.76M24.596 10.532c0 .419-.321.759-.717.759-.397 0-.718-.34-.718-.76 0-.419.321-.759.718-.759.396 0 .717.34.717.76M32.741 7.643c0 .42-.321.76-.717.76-.396 0-.718-.34-.718-.76 0-.419.322-.759.718-.759.396 0 .717.34.717.76M30.05 10.532c0 .419-.322.759-.718.759-.396 0-.717-.34-.717-.76 0-.419.321-.759.717-.759.396 0 .718.34.718.76M21.834 13.414c0 .419-.322.759-.718.759-.396 0-.717-.34-.717-.76 0-.418.32-.758.717-.758.396 0 .718.34.718.759M19.142 16.302c0 .419-.321.76-.717.76-.397 0-.718-.341-.718-.76 0-.42.321-.76.718-.76.396 0 .717.34.717.76M27.285 13.414c0 .419-.321.759-.717.759-.397 0-.718-.34-.718-.76 0-.418.321-.758.718-.758.396 0 .717.34.717.759M24.594 16.302c0 .419-.321.76-.718.76-.396 0-.717-.341-.717-.76 0-.42.321-.76.717-.76.397 0 .718.34.718.76M32.739 13.414c0 .419-.321.759-.718.759-.396 0-.717-.34-.717-.76 0-.418.321-.758.717-.758.397 0 .718.34.718.759M30.047 16.302c0 .419-.32.76-.717.76-.396 0-.717-.341-.717-.76 0-.42.32-.76.717-.76.396 0 .717.34.717.76M38.238 1.87c0 .42-.322.76-.718.76-.396 0-.717-.34-.717-.76 0-.418.321-.758.717-.758.396 0 .718.34.718.759M35.546 4.759c0 .419-.32.76-.717.76-.396 0-.717-.341-.717-.76 0-.42.32-.76.717-.76.396 0 .717.34.717.76M43.69 1.87c0 .42-.322.76-.718.76-.396 0-.717-.34-.717-.76 0-.418.32-.758.717-.758.396 0 .717.34.717.759M40.998 4.759c0 .419-.321.76-.718.76-.396 0-.717-.341-.717-.76 0-.42.321-.76.717-.76.397 0 .718.34.718.76M49.143 1.87c0 .42-.32.76-.717.76-.397 0-.717-.34-.717-.76 0-.418.32-.758.717-.758.396 0 .717.34.717.759M46.452 4.759c0 .419-.321.76-.718.76-.396 0-.717-.341-.717-.76 0-.42.321-.76.717-.76.397 0 .718.34.718.76M38.238 7.643c0 .42-.322.76-.718.76-.396 0-.717-.34-.717-.76 0-.419.321-.759.717-.759.396 0 .718.34.718.76M35.546 10.532c0 .419-.32.759-.717.759-.396 0-.717-.34-.717-.76 0-.419.32-.759.717-.759.396 0 .717.34.717.76M43.69 7.643c0 .42-.322.76-.718.76-.396 0-.717-.34-.717-.76 0-.419.32-.759.717-.759.396 0 .717.34.717.76M40.998 10.532c0 .419-.321.759-.718.759-.396 0-.717-.34-.717-.76 0-.419.321-.759.717-.759.397 0 .718.34.718.76M49.143 7.643c0 .42-.32.76-.717.76-.397 0-.717-.34-.717-.76 0-.419.32-.759.717-.759.396 0 .717.34.717.76M46.452 10.532c0 .419-.321.759-.718.759-.396 0-.717-.34-.717-.76 0-.419.321-.759.717-.759.397 0 .718.34.718.76M38.235 13.414c0 .419-.32.759-.717.759-.396 0-.717-.34-.717-.76 0-.418.32-.758.717-.758.396 0 .717.34.717.759M35.544 16.302c0 .419-.321.76-.717.76-.396 0-.718-.341-.718-.76 0-.42.322-.76.718-.76.396 0 .717.34.717.76M43.687 13.414c0 .419-.321.759-.717.759-.397 0-.718-.34-.718-.76 0-.418.321-.758.718-.758.396 0 .717.34.717.759M40.996 16.302c0 .419-.321.76-.718.76-.396 0-.717-.341-.717-.76 0-.42.321-.76.717-.76.397 0 .718.34.718.76M49.141 13.414c0 .419-.321.759-.718.759-.396 0-.717-.34-.717-.76 0-.418.321-.758.717-.758.397 0 .718.34.718.759M46.45 16.302c0 .419-.322.76-.718.76-.396 0-.717-.341-.717-.76 0-.42.32-.76.717-.76.396 0 .717.34.717.76M-27.37 19.286c0 .419-.322.759-.718.759-.396 0-.717-.34-.717-.76 0-.419.32-.759.717-.759.396 0 .717.34.717.76M-30.062 22.174c0 .419-.321.759-.717.759-.396 0-.718-.34-.718-.76 0-.419.322-.759.718-.759.396 0 .717.34.717.76M-21.919 19.286c0 .419-.321.759-.717.759-.396 0-.718-.34-.718-.76 0-.419.322-.759.718-.759.396 0 .717.34.717.76M-24.61 22.174c0 .419-.321.759-.718.759-.396 0-.717-.34-.717-.76 0-.419.321-.759.717-.759.397 0 .718.34.718.76M-16.465 19.286c0 .419-.321.759-.718.759-.396 0-.717-.34-.717-.76 0-.419.321-.759.717-.759.397 0 .718.34.718.76M-19.156 22.174c0 .419-.322.759-.718.759-.396 0-.717-.34-.717-.76 0-.419.32-.759.717-.759.396 0 .718.34.718.76M-27.37 25.058c0 .42-.322.76-.718.76-.396 0-.717-.34-.717-.76 0-.419.32-.76.717-.76.396 0 .717.341.717.76M-30.062 27.946c0 .42-.321.76-.717.76-.396 0-.718-.34-.718-.76s.322-.759.718-.759c.396 0 .717.34.717.76M-21.919 25.058c0 .42-.321.76-.717.76-.396 0-.718-.34-.718-.76 0-.419.322-.76.718-.76.396 0 .717.341.717.76M-24.61 27.946c0 .42-.321.76-.718.76-.396 0-.717-.34-.717-.76s.321-.759.717-.759c.397 0 .718.34.718.76M-16.465 25.058c0 .42-.321.76-.718.76-.396 0-.717-.34-.717-.76 0-.419.321-.76.717-.76.397 0 .718.341.718.76M-19.156 27.946c0 .42-.322.76-.718.76-.396 0-.717-.34-.717-.76s.32-.759.717-.759c.396 0 .718.34.718.76M-27.373 30.829c0 .419-.32.759-.717.759-.396 0-.717-.34-.717-.76 0-.419.32-.759.717-.759.396 0 .717.34.717.76M-30.064 33.717c0 .419-.321.759-.718.759-.396 0-.717-.34-.717-.76 0-.419.321-.759.717-.759.397 0 .718.34.718.76M-21.921 30.829c0 .419-.321.759-.718.759-.396 0-.717-.34-.717-.76 0-.419.321-.759.717-.759.397 0 .718.34.718.76M-24.612 33.717c0 .419-.322.759-.718.759-.396 0-.717-.34-.717-.76 0-.419.32-.759.717-.759.396 0 .718.34.718.76M-16.467 30.829c0 .419-.322.759-.718.759-.396 0-.717-.34-.717-.76 0-.419.321-.759.717-.759.396 0 .718.34.718.76M-19.159 33.717c0 .419-.321.759-.717.759-.396 0-.717-.34-.717-.76 0-.419.32-.759.717-.759.396 0 .717.34.717.76M-10.968 19.286c0 .419-.322.759-.718.759-.396 0-.717-.34-.717-.76 0-.419.321-.759.717-.759.396 0 .718.34.718.76M-13.66 22.174c0 .419-.321.759-.717.759-.396 0-.718-.34-.718-.76 0-.419.322-.759.718-.759.396 0 .717.34.717.76M-5.517 19.286c0 .419-.32.759-.717.759-.396 0-.717-.34-.717-.76 0-.419.32-.759.717-.759.396 0 .717.34.717.76M-8.208 22.174c0 .419-.321.759-.718.759-.396 0-.717-.34-.717-.76 0-.419.321-.759.717-.759.397 0 .718.34.718.76M-.063 19.286c0 .419-.321.759-.717.759-.397 0-.718-.34-.718-.76 0-.419.321-.759.718-.759.396 0 .717.34.717.76M-2.754 22.174c0 .419-.322.759-.718.759-.396 0-.717-.34-.717-.76 0-.419.32-.759.717-.759.396 0 .718.34.718.76M-10.968 25.058c0 .42-.322.76-.718.76-.396 0-.717-.34-.717-.76 0-.419.321-.76.717-.76.396 0 .718.341.718.76M-13.66 27.946c0 .42-.321.76-.717.76-.396 0-.718-.34-.718-.76s.322-.759.718-.759c.396 0 .717.34.717.76M-5.517 25.058c0 .42-.32.76-.717.76-.396 0-.717-.34-.717-.76 0-.419.32-.76.717-.76.396 0 .717.341.717.76M-8.208 27.946c0 .42-.321.76-.718.76-.396 0-.717-.34-.717-.76s.321-.759.717-.759c.397 0 .718.34.718.76M-.063 25.058c0 .42-.321.76-.717.76-.397 0-.718-.34-.718-.76 0-.419.321-.76.718-.76.396 0 .717.341.717.76M-2.754 27.946c0 .42-.322.76-.718.76-.396 0-.717-.34-.717-.76s.32-.759.717-.759c.396 0 .718.34.718.76M-10.97 30.829c0 .419-.322.759-.718.759-.396 0-.718-.34-.718-.76 0-.419.322-.759.718-.759.396 0 .717.34.717.76M-13.662 33.717c0 .419-.321.759-.718.759-.396 0-.717-.34-.717-.76 0-.419.321-.759.717-.759.397 0 .718.34.718.76M-5.519 30.829c0 .419-.321.759-.717.759-.397 0-.718-.34-.718-.76 0-.419.321-.759.718-.759.396 0 .717.34.717.76M-8.21 33.717c0 .419-.322.759-.718.759-.396 0-.717-.34-.717-.76 0-.419.321-.759.717-.759.396 0 .718.34.718.76M-.065 30.829c0 .419-.321.759-.718.759-.396 0-.717-.34-.717-.76 0-.419.321-.759.717-.759.397 0 .718.34.718.76M-2.757 33.717c0 .419-.32.759-.717.759-.396 0-.717-.34-.717-.76 0-.419.32-.759.717-.759.396 0 .717.34.717.76M5.434 19.286c0 .419-.322.759-.718.759-.396 0-.717-.34-.717-.76 0-.419.321-.759.717-.759.396 0 .718.34.718.76M2.742 22.174c0 .419-.321.759-.717.759-.396 0-.717-.34-.717-.76 0-.419.32-.759.717-.759.396 0 .717.34.717.76M10.885 19.286c0 .419-.32.759-.717.759-.396 0-.717-.34-.717-.76 0-.419.32-.759.717-.759.396 0 .717.34.717.76M8.194 22.174c0 .419-.321.759-.718.759-.396 0-.717-.34-.717-.76 0-.419.321-.759.717-.759.397 0 .718.34.718.76M16.34 19.286c0 .419-.322.759-.718.759-.397 0-.718-.34-.718-.76 0-.419.321-.759.718-.759.396 0 .717.34.717.76M13.648 22.174c0 .419-.321.759-.718.759-.396 0-.717-.34-.717-.76 0-.419.32-.759.717-.759.397 0 .718.34.718.76M5.434 25.058c0 .42-.322.76-.718.76-.396 0-.717-.34-.717-.76 0-.419.321-.76.717-.76.396 0 .718.341.718.76M2.742 27.946c0 .42-.321.76-.717.76-.396 0-.717-.34-.717-.76s.32-.759.717-.759c.396 0 .717.34.717.76M10.885 25.058c0 .42-.32.76-.717.76-.396 0-.717-.34-.717-.76 0-.419.32-.76.717-.76.396 0 .717.341.717.76M8.194 27.946c0 .42-.321.76-.718.76-.396 0-.717-.34-.717-.76s.321-.759.717-.759c.397 0 .718.34.718.76M16.34 25.058c0 .42-.322.76-.718.76-.397 0-.718-.34-.718-.76 0-.419.321-.76.718-.76.396 0 .717.341.717.76M13.648 27.946c0 .42-.321.76-.718.76-.396 0-.717-.34-.717-.76s.32-.759.717-.759c.397 0 .718.34.718.76M5.431 30.829c0 .419-.32.759-.717.759-.396 0-.718-.34-.718-.76 0-.419.322-.759.718-.759.396 0 .717.34.717.76M2.74 33.717c0 .419-.321.759-.717.759-.397 0-.718-.34-.718-.76 0-.419.321-.759.718-.759.396 0 .717.34.717.76M10.883 30.829c0 .419-.321.759-.717.759-.397 0-.718-.34-.718-.76 0-.419.321-.759.718-.759.396 0 .717.34.717.76M8.192 33.717c0 .419-.322.759-.718.759-.396 0-.717-.34-.717-.76 0-.419.321-.759.717-.759.396 0 .718.34.718.76M16.337 30.829c0 .419-.321.759-.718.759-.396 0-.717-.34-.717-.76 0-.419.321-.759.717-.759.397 0 .718.34.718.76M13.646 33.717c0 .419-.322.759-.718.759-.396 0-.717-.34-.717-.76 0-.419.32-.759.717-.759.396 0 .718.34.718.76M21.836 19.286c0 .419-.321.759-.718.759-.396 0-.717-.34-.717-.76 0-.419.32-.759.717-.759.397 0 .718.34.718.76M19.144 22.174c0 .419-.32.759-.717.759-.396 0-.717-.34-.717-.76 0-.419.32-.759.717-.759.396 0 .717.34.717.76M27.287 19.286c0 .419-.32.759-.717.759-.396 0-.717-.34-.717-.76 0-.419.32-.759.717-.759.396 0 .717.34.717.76M24.596 22.174c0 .419-.321.759-.717.759-.397 0-.718-.34-.718-.76 0-.419.321-.759.718-.759.396 0 .717.34.717.76M32.741 19.286c0 .419-.321.759-.717.759-.396 0-.718-.34-.718-.76 0-.419.322-.759.718-.759.396 0 .717.34.717.76M30.05 22.174c0 .419-.322.759-.718.759-.396 0-.717-.34-.717-.76 0-.419.321-.759.717-.759.396 0 .718.34.718.76M21.836 25.058c0 .42-.321.76-.718.76-.396 0-.717-.34-.717-.76 0-.419.32-.76.717-.76.397 0 .718.341.718.76M19.144 27.946c0 .42-.32.76-.717.76-.396 0-.717-.34-.717-.76s.32-.759.717-.759c.396 0 .717.34.717.76M27.287 25.058c0 .42-.32.76-.717.76-.396 0-.717-.34-.717-.76 0-.419.32-.76.717-.76.396 0 .717.341.717.76M24.596 27.946c0 .42-.321.76-.717.76-.397 0-.718-.34-.718-.76s.321-.759.718-.759c.396 0 .717.34.717.76M32.741 25.058c0 .42-.321.76-.717.76-.396 0-.718-.34-.718-.76 0-.419.322-.76.718-.76.396 0 .717.341.717.76M30.05 27.946c0 .42-.322.76-.718.76-.396 0-.717-.34-.717-.76s.321-.759.717-.759c.396 0 .718.34.718.76M21.834 30.829c0 .419-.322.759-.718.759-.396 0-.717-.34-.717-.76 0-.419.32-.759.717-.759.396 0 .718.34.718.76M19.142 33.717c0 .419-.321.759-.717.759-.397 0-.718-.34-.718-.76 0-.419.321-.759.718-.759.396 0 .717.34.717.76M27.285 30.829c0 .419-.321.759-.717.759-.397 0-.718-.34-.718-.76 0-.419.321-.759.718-.759.396 0 .717.34.717.76M24.594 33.717c0 .419-.321.759-.718.759-.396 0-.717-.34-.717-.76 0-.419.321-.759.717-.759.397 0 .718.34.718.76M32.739 30.829c0 .419-.321.759-.718.759-.396 0-.717-.34-.717-.76 0-.419.321-.759.717-.759.397 0 .718.34.718.76M30.047 33.717c0 .419-.32.759-.717.759-.396 0-.717-.34-.717-.76 0-.419.32-.759.717-.759.396 0 .717.34.717.76M38.238 19.286c0 .419-.322.759-.718.759-.396 0-.717-.34-.717-.76 0-.419.321-.759.717-.759.396 0 .718.34.718.76M35.546 22.174c0 .419-.32.759-.717.759-.396 0-.717-.34-.717-.76 0-.419.32-.759.717-.759.396 0 .717.34.717.76M43.69 19.286c0 .419-.322.759-.718.759-.396 0-.717-.34-.717-.76 0-.419.32-.759.717-.759.396 0 .717.34.717.76M40.998 22.174c0 .419-.321.759-.718.759-.396 0-.717-.34-.717-.76 0-.419.321-.759.717-.759.397 0 .718.34.718.76M49.143 19.286c0 .419-.32.759-.717.759-.397 0-.717-.34-.717-.76 0-.419.32-.759.717-.759.396 0 .717.34.717.76M46.452 22.174c0 .419-.321.759-.718.759-.396 0-.717-.34-.717-.76 0-.419.321-.759.717-.759.397 0 .718.34.718.76M38.238 25.058c0 .42-.322.76-.718.76-.396 0-.717-.34-.717-.76 0-.419.321-.76.717-.76.396 0 .718.341.718.76M35.546 27.946c0 .42-.32.76-.717.76-.396 0-.717-.34-.717-.76s.32-.759.717-.759c.396 0 .717.34.717.76M43.69 25.058c0 .42-.322.76-.718.76-.396 0-.717-.34-.717-.76 0-.419.32-.76.717-.76.396 0 .717.341.717.76M40.998 27.946c0 .42-.321.76-.718.76-.396 0-.717-.34-.717-.76s.321-.759.717-.759c.397 0 .718.34.718.76M49.143 25.058c0 .42-.32.76-.717.76-.397 0-.717-.34-.717-.76 0-.419.32-.76.717-.76.396 0 .717.341.717.76M46.452 27.946c0 .42-.321.76-.718.76-.396 0-.717-.34-.717-.76s.321-.759.717-.759c.397 0 .718.34.718.76M38.235 30.829c0 .419-.32.759-.717.759-.396 0-.717-.34-.717-.76 0-.419.32-.759.717-.759.396 0 .717.34.717.76M35.544 33.717c0 .419-.321.759-.717.759-.396 0-.718-.34-.718-.76 0-.419.322-.759.718-.759.396 0 .717.34.717.76M43.687 30.829c0 .419-.321.759-.717.759-.397 0-.718-.34-.718-.76 0-.419.321-.759.718-.759.396 0 .717.34.717.76M40.996 33.717c0 .419-.321.759-.718.759-.396 0-.717-.34-.717-.76 0-.419.321-.759.717-.759.397 0 .718.34.718.76M49.141 30.829c0 .419-.321.759-.718.759-.396 0-.717-.34-.717-.76 0-.419.321-.759.717-.759.397 0 .718.34.718.76M46.45 33.717c0 .419-.322.759-.718.759-.396 0-.717-.34-.717-.76 0-.419.32-.759.717-.759.396 0 .717.34.717.76M-27.37 36.7c0 .42-.322.76-.718.76-.396 0-.717-.34-.717-.76s.32-.759.717-.759c.396 0 .717.34.717.76M-30.062 39.588c0 .42-.321.76-.717.76-.396 0-.718-.34-.718-.76 0-.419.322-.759.718-.759.396 0 .717.34.717.76M-21.919 36.7c0 .42-.321.76-.717.76-.396 0-.718-.34-.718-.76s.322-.759.718-.759c.396 0 .717.34.717.76M-24.61 39.588c0 .42-.321.76-.718.76-.396 0-.717-.34-.717-.76 0-.419.321-.759.717-.759.397 0 .718.34.718.76M-16.465 36.7c0 .42-.321.76-.718.76-.396 0-.717-.34-.717-.76s.321-.759.717-.759c.397 0 .718.34.718.76M-19.156 39.588c0 .42-.322.76-.718.76-.396 0-.717-.34-.717-.76 0-.419.32-.759.717-.759.396 0 .718.34.718.76M-27.37 42.473c0 .42-.322.76-.718.76-.396 0-.717-.34-.717-.76s.32-.76.717-.76c.396 0 .717.34.717.76M-30.062 45.36c0 .42-.321.76-.717.76-.396 0-.718-.34-.718-.76 0-.418.322-.758.718-.758.396 0 .717.34.717.759M-21.919 42.473c0 .42-.321.76-.717.76-.396 0-.718-.34-.718-.76s.322-.76.718-.76c.396 0 .717.34.717.76M-24.61 45.36c0 .42-.321.76-.718.76-.396 0-.717-.34-.717-.76 0-.418.321-.758.717-.758.397 0 .718.34.718.759M-16.465 42.473c0 .42-.321.76-.718.76-.396 0-.717-.34-.717-.76s.321-.76.717-.76c.397 0 .718.34.718.76M-19.156 45.36c0 .42-.322.76-.718.76-.396 0-.717-.34-.717-.76 0-.418.32-.758.717-.758.396 0 .718.34.718.759M-27.373 48.243c0 .42-.32.76-.717.76-.396 0-.717-.34-.717-.76s.32-.759.717-.759c.396 0 .717.34.717.76M-30.064 51.131c0 .42-.321.76-.718.76-.396 0-.717-.34-.717-.76 0-.419.321-.76.717-.76.397 0 .718.341.718.76M-21.921 48.243c0 .42-.321.76-.718.76-.396 0-.717-.34-.717-.76s.321-.759.717-.759c.397 0 .718.34.718.76M-24.612 51.131c0 .42-.322.76-.718.76-.396 0-.717-.34-.717-.76 0-.419.32-.76.717-.76.396 0 .718.341.718.76M-16.467 48.243c0 .42-.322.76-.718.76-.396 0-.717-.34-.717-.76s.321-.759.717-.759c.396 0 .718.34.718.76M-19.159 51.131c0 .42-.321.76-.717.76-.396 0-.717-.34-.717-.76 0-.419.32-.76.717-.76.396 0 .717.341.717.76M-10.968 36.7c0 .42-.322.76-.718.76-.396 0-.717-.34-.717-.76s.321-.759.717-.759c.396 0 .718.34.718.76M-13.66 39.588c0 .42-.321.76-.717.76-.396 0-.718-.34-.718-.76 0-.419.322-.759.718-.759.396 0 .717.34.717.76M-5.517 36.7c0 .42-.32.76-.717.76-.396 0-.717-.34-.717-.76s.32-.759.717-.759c.396 0 .717.34.717.76M-8.208 39.588c0 .42-.321.76-.718.76-.396 0-.717-.34-.717-.76 0-.419.321-.759.717-.759.397 0 .718.34.718.76M-.063 36.7c0 .42-.321.76-.717.76-.397 0-.718-.34-.718-.76s.321-.759.718-.759c.396 0 .717.34.717.76M-2.754 39.588c0 .42-.322.76-.718.76-.396 0-.717-.34-.717-.76 0-.419.32-.759.717-.759.396 0 .718.34.718.76M-10.968 42.473c0 .42-.322.76-.718.76-.396 0-.717-.34-.717-.76s.321-.76.717-.76c.396 0 .718.34.718.76M-13.66 45.36c0 .42-.321.76-.717.76-.396 0-.718-.34-.718-.76 0-.418.322-.758.718-.758.396 0 .717.34.717.759M-5.517 42.473c0 .42-.32.76-.717.76-.396 0-.717-.34-.717-.76s.32-.76.717-.76c.396 0 .717.34.717.76M-8.208 45.36c0 .42-.321.76-.718.76-.396 0-.717-.34-.717-.76 0-.418.321-.758.717-.758.397 0 .718.34.718.759M-.063 42.473c0 .42-.321.76-.717.76-.397 0-.718-.34-.718-.76s.321-.76.718-.76c.396 0 .717.34.717.76M-2.754 45.36c0 .42-.322.76-.718.76-.396 0-.717-.34-.717-.76 0-.418.32-.758.717-.758.396 0 .718.34.718.759M-10.97 48.243c0 .42-.322.76-.718.76-.396 0-.718-.34-.718-.76s.322-.759.718-.759c.396 0 .717.34.717.76M-13.662 51.131c0 .42-.321.76-.718.76-.396 0-.717-.34-.717-.76 0-.419.321-.76.717-.76.397 0 .718.341.718.76M-5.519 48.243c0 .42-.321.76-.717.76-.397 0-.718-.34-.718-.76s.321-.759.718-.759c.396 0 .717.34.717.76M-8.21 51.131c0 .42-.322.76-.718.76-.396 0-.717-.34-.717-.76 0-.419.321-.76.717-.76.396 0 .718.341.718.76M-.065 48.243c0 .42-.321.76-.718.76-.396 0-.717-.34-.717-.76s.321-.759.717-.759c.397 0 .718.34.718.76M-2.757 51.131c0 .42-.32.76-.717.76-.396 0-.717-.34-.717-.76 0-.419.32-.76.717-.76.396 0 .717.341.717.76M5.434 36.7c0 .42-.322.76-.718.76-.396 0-.717-.34-.717-.76s.321-.759.717-.759c.396 0 .718.34.718.76M2.742 39.588c0 .42-.321.76-.717.76-.396 0-.717-.34-.717-.76 0-.419.32-.759.717-.759.396 0 .717.34.717.76M10.885 36.7c0 .42-.32.76-.717.76-.396 0-.717-.34-.717-.76s.32-.759.717-.759c.396 0 .717.34.717.76M8.194 39.588c0 .42-.321.76-.718.76-.396 0-.717-.34-.717-.76 0-.419.321-.759.717-.759.397 0 .718.34.718.76M16.34 36.7c0 .42-.322.76-.718.76-.397 0-.718-.34-.718-.76s.321-.759.718-.759c.396 0 .717.34.717.76M13.648 39.588c0 .42-.321.76-.718.76-.396 0-.717-.34-.717-.76 0-.419.32-.759.717-.759.397 0 .718.34.718.76M5.434 42.473c0 .42-.322.76-.718.76-.396 0-.717-.34-.717-.76s.321-.76.717-.76c.396 0 .718.34.718.76M2.742 45.36c0 .42-.321.76-.717.76-.396 0-.717-.34-.717-.76 0-.418.32-.758.717-.758.396 0 .717.34.717.759M10.885 42.473c0 .42-.32.76-.717.76-.396 0-.717-.34-.717-.76s.32-.76.717-.76c.396 0 .717.34.717.76M8.194 45.36c0 .42-.321.76-.718.76-.396 0-.717-.34-.717-.76 0-.418.321-.758.717-.758.397 0 .718.34.718.759M16.34 42.473c0 .42-.322.76-.718.76-.397 0-.718-.34-.718-.76s.321-.76.718-.76c.396 0 .717.34.717.76M13.648 45.36c0 .42-.321.76-.718.76-.396 0-.717-.34-.717-.76 0-.418.32-.758.717-.758.397 0 .718.34.718.759M5.431 48.243c0 .42-.32.76-.717.76-.396 0-.718-.34-.718-.76s.322-.759.718-.759c.396 0 .717.34.717.76M2.74 51.131c0 .42-.321.76-.717.76-.397 0-.718-.34-.718-.76 0-.419.321-.76.718-.76.396 0 .717.341.717.76M10.883 48.243c0 .42-.321.76-.717.76-.397 0-.718-.34-.718-.76s.321-.759.718-.759c.396 0 .717.34.717.76M8.192 51.131c0 .42-.322.76-.718.76-.396 0-.717-.34-.717-.76 0-.419.321-.76.717-.76.396 0 .718.341.718.76M16.337 48.243c0 .42-.321.76-.718.76-.396 0-.717-.34-.717-.76s.321-.759.717-.759c.397 0 .718.34.718.76M13.646 51.131c0 .42-.322.76-.718.76-.396 0-.717-.34-.717-.76 0-.419.32-.76.717-.76.396 0 .718.341.718.76M21.836 36.7c0 .42-.321.76-.718.76-.396 0-.717-.34-.717-.76s.32-.759.717-.759c.397 0 .718.34.718.76M19.144 39.588c0 .42-.32.76-.717.76-.396 0-.717-.34-.717-.76 0-.419.32-.759.717-.759.396 0 .717.34.717.76M27.287 36.7c0 .42-.32.76-.717.76-.396 0-.717-.34-.717-.76s.32-.759.717-.759c.396 0 .717.34.717.76M24.596 39.588c0 .42-.321.76-.717.76-.397 0-.718-.34-.718-.76 0-.419.321-.759.718-.759.396 0 .717.34.717.76M32.741 36.7c0 .42-.321.76-.717.76-.396 0-.718-.34-.718-.76s.322-.759.718-.759c.396 0 .717.34.717.76M30.05 39.588c0 .42-.322.76-.718.76-.396 0-.717-.34-.717-.76 0-.419.321-.759.717-.759.396 0 .718.34.718.76M21.836 42.473c0 .42-.321.76-.718.76-.396 0-.717-.34-.717-.76s.32-.76.717-.76c.397 0 .718.34.718.76M19.144 45.36c0 .42-.32.76-.717.76-.396 0-.717-.34-.717-.76 0-.418.32-.758.717-.758.396 0 .717.34.717.759M27.287 42.473c0 .42-.32.76-.717.76-.396 0-.717-.34-.717-.76s.32-.76.717-.76c.396 0 .717.34.717.76M24.596 45.36c0 .42-.321.76-.717.76-.397 0-.718-.34-.718-.76 0-.418.321-.758.718-.758.396 0 .717.34.717.759M32.741 42.473c0 .42-.321.76-.717.76-.396 0-.718-.34-.718-.76s.322-.76.718-.76c.396 0 .717.34.717.76M30.05 45.36c0 .42-.322.76-.718.76-.396 0-.717-.34-.717-.76 0-.418.321-.758.717-.758.396 0 .718.34.718.759M21.834 48.243c0 .42-.322.76-.718.76-.396 0-.717-.34-.717-.76s.32-.759.717-.759c.396 0 .718.34.718.76M19.142 51.131c0 .42-.321.76-.717.76-.397 0-.718-.34-.718-.76 0-.419.321-.76.718-.76.396 0 .717.341.717.76M27.285 48.243c0 .42-.321.76-.717.76-.397 0-.718-.34-.718-.76s.321-.759.718-.759c.396 0 .717.34.717.76M24.594 51.131c0 .42-.321.76-.718.76-.396 0-.717-.34-.717-.76 0-.419.321-.76.717-.76.397 0 .718.341.718.76M32.739 48.243c0 .42-.321.76-.718.76-.396 0-.717-.34-.717-.76s.321-.759.717-.759c.397 0 .718.34.718.76M30.047 51.131c0 .42-.32.76-.717.76-.396 0-.717-.34-.717-.76 0-.419.32-.76.717-.76.396 0 .717.341.717.76M38.238 36.7c0 .42-.322.76-.718.76-.396 0-.717-.34-.717-.76s.321-.759.717-.759c.396 0 .718.34.718.76M35.546 39.588c0 .42-.32.76-.717.76-.396 0-.717-.34-.717-.76 0-.419.32-.759.717-.759.396 0 .717.34.717.76M43.69 36.7c0 .42-.322.76-.718.76-.396 0-.717-.34-.717-.76s.32-.759.717-.759c.396 0 .717.34.717.76M40.998 39.588c0 .42-.321.76-.718.76-.396 0-.717-.34-.717-.76 0-.419.321-.759.717-.759.397 0 .718.34.718.76M49.143 36.7c0 .42-.32.76-.717.76-.397 0-.717-.34-.717-.76s.32-.759.717-.759c.396 0 .717.34.717.76M46.452 39.588c0 .42-.321.76-.718.76-.396 0-.717-.34-.717-.76 0-.419.321-.759.717-.759.397 0 .718.34.718.76M38.238 42.473c0 .42-.322.76-.718.76-.396 0-.717-.34-.717-.76s.321-.76.717-.76c.396 0 .718.34.718.76M35.546 45.36c0 .42-.32.76-.717.76-.396 0-.717-.34-.717-.76 0-.418.32-.758.717-.758.396 0 .717.34.717.759M43.69 42.473c0 .42-.322.76-.718.76-.396 0-.717-.34-.717-.76s.32-.76.717-.76c.396 0 .717.34.717.76M40.998 45.36c0 .42-.321.76-.718.76-.396 0-.717-.34-.717-.76 0-.418.321-.758.717-.758.397 0 .718.34.718.759M49.143 42.473c0 .42-.32.76-.717.76-.397 0-.717-.34-.717-.76s.32-.76.717-.76c.396 0 .717.34.717.76M46.452 45.36c0 .42-.321.76-.718.76-.396 0-.717-.34-.717-.76 0-.418.321-.758.717-.758.397 0 .718.34.718.759M38.235 48.243c0 .42-.32.76-.717.76-.396 0-.717-.34-.717-.76s.32-.759.717-.759c.396 0 .717.34.717.76M35.544 51.131c0 .42-.321.76-.717.76-.396 0-.718-.34-.718-.76 0-.419.322-.76.718-.76.396 0 .717.341.717.76M43.687 48.243c0 .42-.321.76-.717.76-.397 0-.718-.34-.718-.76s.321-.759.718-.759c.396 0 .717.34.717.76M40.996 51.131c0 .42-.321.76-.718.76-.396 0-.717-.34-.717-.76 0-.419.321-.76.717-.76.397 0 .718.341.718.76M49.141 48.243c0 .42-.321.76-.718.76-.396 0-.717-.34-.717-.76s.321-.759.717-.759c.397 0 .718.34.718.76M46.45 51.131c0 .42-.322.76-.718.76-.396 0-.717-.34-.717-.76 0-.419.32-.76.717-.76.396 0 .717.341.717.76"/></g></g><g fill="#00A82D" fill-rule="nonzero"><path d="M19.935 20.024v6.616a1.35 1.35 0 01-2.699 0v-7.965c0-.745.604-1.35 1.35-1.35h8.498a1.35 1.35 0 010 2.7h-7.15zM19.935 46.059v-6.616a1.35 1.35 0 00-2.699 0v7.965c0 .746.604 1.35 1.35 1.35h8.498a1.35 1.35 0 000-2.7h-7.15z"/><g><path d="M46.065 20.024v6.616a1.35 1.35 0 002.699 0v-7.965a1.35 1.35 0 00-1.35-1.35h-8.498a1.35 1.35 0 000 2.7h7.15zM46.065 39.443a1.35 1.35 0 012.699 0v7.965a1.35 1.35 0 01-1.35 1.35h-8.498a1.35 1.35 0 010-2.7h7.15v-6.615z"/></g></g><g transform="translate(27.024 27.41)" fill="#FFF"><rect width="11.952" height="1.542" rx=".771"/><rect y="4.627" width="11.952" height="1.542" rx=".771"/><rect y="9.639" width="5.691" height="1.542" rx=".771"/></g></g></svg>