<svg width="56" height="56" viewBox="0 0 56 56" fill="none" xmlns="http://www.w3.org/2000/svg">
<rect width="56" height="56" rx="28" fill="#F2F2F2"/>
<path d="M18.9956 15.1123C19.3228 15.1123 19.6366 15.2423 19.868 15.4737C20.0994 15.7051 20.2294 16.0189 20.2294 16.3461V21.7806H17.7618V16.352C17.761 16.1894 17.7924 16.0284 17.854 15.878C17.9157 15.7276 18.0064 15.5909 18.1211 15.4757C18.2357 15.3606 18.372 15.2692 18.5221 15.2068C18.6721 15.1444 18.8331 15.1123 18.9956 15.1123Z" fill="#1A1A1A"/>
<path d="M42.7899 27.5641L31.2452 14.6387C30.8025 14.1411 30.2596 13.7428 29.652 13.4701C29.0445 13.1974 28.386 13.0564 27.7201 13.0564C27.0541 13.0564 26.3957 13.1974 25.7881 13.4701C25.1805 13.7428 24.6376 14.1411 24.195 14.6387L12.6473 27.5641C12.3814 27.8776 12.2484 28.2825 12.2766 28.6927C12.3049 29.1028 12.4921 29.4857 12.7984 29.7599C13.1047 30.034 13.5059 30.1778 13.9167 30.1605C14.3274 30.1432 14.7152 29.9663 14.9974 29.6674L16.7129 27.7433V39.0236C16.7118 39.438 16.7924 39.8486 16.9501 40.2319C17.1078 40.6151 17.3395 40.9635 17.632 41.2571C17.9245 41.5507 18.272 41.7837 18.6547 41.9428C19.0373 42.1019 19.4476 42.184 19.862 42.1844H24.9705V32.8811C24.9705 32.5196 25.0417 32.1617 25.18 31.8278C25.3183 31.4938 25.5211 31.1904 25.7767 30.9348C26.0323 30.6792 26.3357 30.4764 26.6697 30.3381C27.0036 30.1998 27.3615 30.1286 27.723 30.1286C28.0845 30.1286 28.4424 30.1998 28.7763 30.3381C29.1103 30.4764 29.4137 30.6792 29.6693 30.9348C29.9249 31.1904 30.1277 31.4938 30.266 31.8278C30.4043 32.1617 30.4755 32.5196 30.4755 32.8811V42.1844H35.584C36.4194 42.1837 37.2204 41.8512 37.8109 41.2602C38.4014 40.6692 38.733 39.8679 38.733 39.0324V27.7433L40.4398 29.6527C40.7179 29.9643 41.1085 30.1527 41.5255 30.1764C41.9425 30.2001 42.3519 30.0572 42.6635 29.779C42.9752 29.5009 43.1636 29.1103 43.1872 28.6933C43.2109 28.2763 43.068 27.8669 42.7899 27.5553V27.5641Z" fill="#00A82D" stroke="#00A82D" stroke-width="1.25773"/>
<path d="M20.991 30.4912C21.2683 30.4912 21.543 30.5458 21.7992 30.652C22.0555 30.7581 22.2883 30.9137 22.4845 31.1098C22.6806 31.306 22.8362 31.5388 22.9423 31.7951C23.0485 32.0513 23.1031 32.326 23.1031 32.6033V37.2006H18.8788V32.6033C18.8788 32.0432 19.1014 31.5059 19.4975 31.1098C19.8936 30.7137 20.4308 30.4912 20.991 30.4912Z" fill="#CEDC00"/>
<path d="M34.4571 30.4912C34.7345 30.4912 35.0091 30.5458 35.2654 30.652C35.5217 30.7581 35.7545 30.9137 35.9506 31.1098C36.1467 31.306 36.3023 31.5388 36.4085 31.7951C36.5146 32.0513 36.5692 32.326 36.5692 32.6033V37.2006H32.345V32.6033C32.345 32.0432 32.5675 31.5059 32.9636 31.1098C33.3597 30.7137 33.897 30.4912 34.4571 30.4912Z" fill="#CEDC00"/>
</svg>