<svg width="64" height="65" xmlns="http://www.w3.org/2000/svg" xmlns:xlink="http://www.w3.org/1999/xlink"><defs><path d="M3 0h19.6a3 3 0 013 3v21.174a3 3 0 01-.846 2.088l-4.679 4.826a3 3 0 01-2.154.912H3a3 3 0 01-3-3V3a3 3 0 013-3z" id="a"/></defs><g fill="none" fill-rule="evenodd"><circle cx="32" cy="32" r="32" transform="translate(0 .538)" fill="#F5F5F5"/><g transform="translate(19 17)"><mask id="b" fill="#fff"><use xlink:href="#a"/></mask><use fill="#00A82D" xlink:href="#a"/><g fill="#FFF" opacity=".2" mask="url(#b)"><path d="M-8.676-7.56a.433.433 0 11-.867-.001.433.433 0 01.867.001M-10.304-5.914a.433.433 0 11-.867-.002.433.433 0 01.867.002M-5.378-7.56a.433.433 0 11-.867-.001.433.433 0 01.867.001M-7.007-5.914a.433.433 0 11-.866-.002.433.433 0 01.866.002M-2.08-7.56a.433.433 0 11-.866-.001.433.433 0 01.867.001M-3.707-5.914a.433.433 0 11-.867-.002.433.433 0 01.867.002M-8.676-4.27a.433.433 0 11-.867-.002.433.433 0 01.867.002M-10.304-2.625a.433.433 0 11-.867-.002.433.433 0 01.867.002M-5.378-4.27a.433.433 0 11-.867-.002.433.433 0 01.867.002M-7.007-2.625a.433.433 0 11-.866-.002.433.433 0 01.866.002M-2.08-4.27a.433.433 0 11-.866-.002.433.433 0 01.867.002M-3.707-2.625a.433.433 0 11-.867-.002.433.433 0 01.867.002M-8.678-.983a.433.433 0 11-.866-.001.433.433 0 01.866.001M-10.306.663a.433.433 0 11-.867-.002.433.433 0 01.867.002M-5.38-.983a.433.433 0 11-.866-.001.433.433 0 01.866.001M-7.008.663A.433.433 0 11-7.875.66a.433.433 0 01.867.002M-2.08-.983a.433.433 0 11-.867-.001.433.433 0 01.866.001M-3.709.663A.433.433 0 11-4.575.66a.433.433 0 01.866.002M1.246-7.56a.433.433 0 11-.867-.001.433.433 0 01.867.001M-.382-5.914a.433.433 0 11-.867-.002.433.433 0 01.867.002M4.544-7.56a.433.433 0 11-.867-.001.433.433 0 01.867.001M2.916-5.914a.433.433 0 11-.867-.002.433.433 0 01.867.002M7.843-7.56a.433.433 0 11-.867-.001.433.433 0 01.867.001M6.215-5.914a.433.433 0 11-.867-.002.433.433 0 01.867.002M1.246-4.27a.433.433 0 11-.867-.002.433.433 0 01.867.002M-.382-2.625a.433.433 0 11-.867-.002.433.433 0 01.867.002M4.544-4.27a.433.433 0 11-.867-.002.433.433 0 01.867.002M2.916-2.625a.433.433 0 11-.867-.002.433.433 0 01.867.002M7.843-4.27a.433.433 0 11-.867-.002.433.433 0 01.867.002M6.215-2.625a.433.433 0 11-.867-.002.433.433 0 01.867.002M1.245-.983a.433.433 0 11-.867-.001.433.433 0 01.867.001M-.384.663A.433.433 0 11-1.25.66a.433.433 0 01.866.002M4.543-.983a.433.433 0 11-.867-.001.433.433 0 01.867.001M2.914.663A.433.433 0 112.048.66a.433.433 0 01.866.002M7.842-.983a.433.433 0 11-.867-.001.433.433 0 01.867.001M6.214.663A.433.433 0 115.347.66a.433.433 0 01.867.002M11.168-7.56a.433.433 0 11-.867-.001.433.433 0 01.867.001M9.54-5.914a.433.433 0 11-.867-.002.433.433 0 01.867.002M14.466-7.56a.433.433 0 11-.867-.001.433.433 0 01.867.001M12.838-5.914a.433.433 0 11-.867-.002.433.433 0 01.867.002M17.765-7.56a.433.433 0 11-.866-.001.433.433 0 01.866.001M16.137-5.914a.433.433 0 11-.867-.002.433.433 0 01.867.002M11.168-4.27a.433.433 0 11-.867-.002.433.433 0 01.867.002M9.54-2.625a.433.433 0 11-.867-.002.433.433 0 01.867.002M14.466-4.27a.433.433 0 11-.867-.002.433.433 0 01.867.002M12.838-2.625a.433.433 0 11-.867-.002.433.433 0 01.867.002M17.765-4.27a.433.433 0 11-.866-.002.433.433 0 01.866.002M16.137-2.625a.433.433 0 11-.867-.002.433.433 0 01.867.002M11.167-.983a.433.433 0 11-.867-.001.433.433 0 01.867.001M9.539.663A.433.433 0 118.672.66a.433.433 0 01.867.002M14.465-.983a.433.433 0 11-.867-.001.433.433 0 01.867.001M12.837.663A.433.433 0 1111.97.66a.433.433 0 01.867.002M17.764-.983a.433.433 0 11-.867-.001.433.433 0 01.867.001M16.136.663a.433.433 0 11-.867-.002.433.433 0 01.867.002M21.09-7.56a.433.433 0 11-.866-.001.433.433 0 01.866.001M19.462-5.914a.433.433 0 11-.866-.002.433.433 0 01.866.002M24.388-7.56a.433.433 0 11-.866-.001.433.433 0 01.866.001M22.76-5.914a.433.433 0 11-.867-.002.433.433 0 01.867.002M27.687-7.56a.433.433 0 11-.866-.001.433.433 0 01.866.001M26.06-5.914a.433.433 0 11-.867-.002.433.433 0 01.866.002M21.09-4.27a.433.433 0 11-.866-.002.433.433 0 01.866.002M19.462-2.625a.433.433 0 11-.866-.002.433.433 0 01.866.002M24.388-4.27a.433.433 0 11-.866-.002.433.433 0 01.866.002M22.76-2.625a.433.433 0 11-.867-.002.433.433 0 01.867.002M27.687-4.27a.433.433 0 11-.866-.002.433.433 0 01.866.002M26.06-2.625a.433.433 0 11-.867-.002.433.433 0 01.866.002M21.09-.983a.433.433 0 11-.868-.001.433.433 0 01.867.001M19.46.663a.433.433 0 11-.866-.002.433.433 0 01.867.002M24.387-.983a.433.433 0 11-.867-.001.433.433 0 01.867.001M22.759.663a.433.433 0 11-.867-.002.433.433 0 01.867.002M27.686-.983a.433.433 0 11-.867-.001.433.433 0 01.867.001M26.058.663a.433.433 0 11-.867-.002.433.433 0 01.867.002M31.013-7.56a.433.433 0 11-.867-.001.433.433 0 01.867.001M29.384-5.914a.433.433 0 11-.866-.002.433.433 0 01.866.002M34.31-7.56a.433.433 0 11-.866-.001.433.433 0 01.867.001M32.682-5.914a.433.433 0 11-.866-.002.433.433 0 01.866.002M37.61-7.56a.433.433 0 11-.867-.001.433.433 0 01.867.001M35.982-5.914a.433.433 0 11-.867-.002.433.433 0 01.867.002M31.013-4.27a.433.433 0 11-.867-.002.433.433 0 01.867.002M29.384-2.625a.433.433 0 11-.866-.002.433.433 0 01.866.002M34.31-4.27a.433.433 0 11-.866-.002.433.433 0 01.867.002M32.682-2.625a.433.433 0 11-.866-.002.433.433 0 01.866.002M37.61-4.27a.433.433 0 11-.867-.002.433.433 0 01.867.002M35.982-2.625a.433.433 0 11-.867-.002.433.433 0 01.867.002M31.011-.983a.433.433 0 11-.867-.001.433.433 0 01.867.001M29.383.663a.433.433 0 11-.867-.002.433.433 0 01.867.002M34.31-.983a.433.433 0 11-.868-.001.433.433 0 01.867.001M32.681.663a.433.433 0 11-.867-.002.433.433 0 01.867.002M37.608-.983a.433.433 0 11-.866-.001.433.433 0 01.866.001M35.98.663a.433.433 0 11-.867-.002.433.433 0 01.867.002M-8.676 2.363a.433.433 0 11-.867-.002.433.433 0 01.867.002M-10.304 4.008a.433.433 0 11-.867-.001.433.433 0 01.867.001M-5.378 2.363a.433.433 0 11-.867-.002.433.433 0 01.867.002M-7.007 4.008a.433.433 0 11-.866-.001.433.433 0 01.866.001M-2.08 2.363a.433.433 0 11-.866-.002.433.433 0 01.867.002M-3.707 4.008a.433.433 0 11-.867-.001.433.433 0 01.867.001M-8.676 5.652a.433.433 0 11-.867-.002.433.433 0 01.867.002M-10.304 7.297a.433.433 0 11-.867-.001.433.433 0 01.867.001M-5.378 5.652a.433.433 0 11-.867-.002.433.433 0 01.867.002M-7.007 7.297a.433.433 0 11-.866-.001.433.433 0 01.866.001M-2.08 5.652a.433.433 0 11-.866-.002.433.433 0 01.867.002M-3.707 7.297a.433.433 0 11-.867-.001.433.433 0 01.867.001M-8.678 8.94a.433.433 0 11-.866-.002.433.433 0 01.866.002M-10.306 10.585a.433.433 0 11-.866-.001.433.433 0 01.866 0M-5.38 8.94a.433.433 0 11-.866-.002.433.433 0 01.866.002M-7.008 10.585a.433.433 0 11-.866-.001.433.433 0 01.866 0M-2.08 8.94a.433.433 0 11-.867-.002.433.433 0 01.866.002M-3.709 10.585a.433.433 0 11-.866-.001.433.433 0 01.866 0M1.246 2.363a.433.433 0 11-.867-.002.433.433 0 01.867.002M-.382 4.008a.433.433 0 11-.867-.001.433.433 0 01.867.001M4.544 2.363a.433.433 0 11-.867-.002.433.433 0 01.867.002M2.916 4.008a.433.433 0 11-.867-.001.433.433 0 01.867.001M7.843 2.363a.433.433 0 11-.867-.002.433.433 0 01.867.002M6.215 4.008a.433.433 0 11-.867-.001.433.433 0 01.867.001M1.246 5.652a.433.433 0 11-.867-.002.433.433 0 01.867.002M-.382 7.297a.433.433 0 11-.867-.001.433.433 0 01.867.001M4.544 5.652a.433.433 0 11-.867-.002.433.433 0 01.867.002M2.916 7.297a.433.433 0 11-.867-.001.433.433 0 01.867.001M7.843 5.652a.433.433 0 11-.867-.002.433.433 0 01.867.002M6.215 7.297a.433.433 0 11-.867-.001.433.433 0 01.867.001M1.245 8.94a.433.433 0 11-.867-.002.433.433 0 01.867.002M-.384 10.585a.433.433 0 11-.866-.001.433.433 0 01.866 0M4.543 8.94a.433.433 0 11-.867-.002.433.433 0 01.867.002M2.914 10.585a.433.433 0 11-.866-.001.433.433 0 01.866 0M7.842 8.94a.433.433 0 11-.867-.002.433.433 0 01.867.002M6.214 10.585a.433.433 0 11-.867-.001.433.433 0 01.867 0M11.168 2.363a.433.433 0 11-.867-.002.433.433 0 01.867.002M9.54 4.008a.433.433 0 11-.867-.001.433.433 0 01.867.001M14.466 2.363a.433.433 0 11-.867-.002.433.433 0 01.867.002M12.838 4.008a.433.433 0 11-.867-.001.433.433 0 01.867.001M17.765 2.363a.433.433 0 11-.866-.002.433.433 0 01.866.002M16.137 4.008a.433.433 0 11-.866-.001.433.433 0 01.866.001M11.168 5.652a.433.433 0 11-.867-.002.433.433 0 01.867.002M9.54 7.297a.433.433 0 11-.867-.001.433.433 0 01.867.001M14.466 5.652a.433.433 0 11-.867-.002.433.433 0 01.867.002M12.838 7.297a.433.433 0 11-.867-.001.433.433 0 01.867.001M17.765 5.652a.433.433 0 11-.866-.002.433.433 0 01.866.002M16.137 7.297a.433.433 0 11-.866-.001.433.433 0 01.866.001M11.167 8.94a.433.433 0 11-.867-.002.433.433 0 01.867.002M9.539 10.585a.433.433 0 11-.867-.001.433.433 0 01.867 0M14.465 8.94a.433.433 0 11-.867-.002.433.433 0 01.867.002M12.837 10.585a.433.433 0 11-.867-.001.433.433 0 01.867 0M17.764 8.94a.433.433 0 11-.867-.002.433.433 0 01.867.002M16.136 10.585a.433.433 0 11-.867-.002.433.433 0 01.867.002M21.09 2.363a.433.433 0 11-.866-.002.433.433 0 01.866.002M19.462 4.008a.433.433 0 11-.866-.001.433.433 0 01.866.001M24.388 2.363a.433.433 0 11-.866-.002.433.433 0 01.866.002M22.76 4.008a.433.433 0 11-.866-.001.433.433 0 01.866.001M27.687 2.363a.433.433 0 11-.866-.002.433.433 0 01.866.002M26.06 4.008a.433.433 0 11-.867-.001.433.433 0 01.866.001M21.09 5.652a.433.433 0 11-.866-.002.433.433 0 01.866.002M19.462 7.297a.433.433 0 11-.866-.001.433.433 0 01.866.001M24.388 5.652a.433.433 0 11-.866-.002.433.433 0 01.866.002M22.76 7.297a.433.433 0 11-.866-.001.433.433 0 01.866.001M27.687 5.652a.433.433 0 11-.866-.002.433.433 0 01.866.002M26.06 7.297a.433.433 0 11-.867-.001.433.433 0 01.866.001M21.09 8.94a.433.433 0 11-.867-.002.433.433 0 01.866.002M19.46 10.585a.433.433 0 11-.866-.001.433.433 0 01.867 0M24.387 8.94a.433.433 0 11-.867-.002.433.433 0 01.867.002M22.759 10.585a.433.433 0 11-.867-.001.433.433 0 01.867 0M27.686 8.94a.433.433 0 11-.866-.002.433.433 0 01.866.002M26.058 10.585a.433.433 0 11-.867-.001.433.433 0 01.867 0M31.013 2.363a.433.433 0 11-.867-.002.433.433 0 01.867.002M29.384 4.008a.433.433 0 11-.866-.001.433.433 0 01.866.001M34.31 2.363a.433.433 0 11-.866-.002.433.433 0 01.867.002M32.682 4.008a.433.433 0 11-.866-.001.433.433 0 01.866.001M37.61 2.363a.433.433 0 11-.867-.002.433.433 0 01.867.002M35.982 4.008a.433.433 0 11-.867-.001.433.433 0 01.867.001M31.013 5.652a.433.433 0 11-.867-.002.433.433 0 01.867.002M29.384 7.297a.433.433 0 11-.866-.001.433.433 0 01.866.001M34.31 5.652a.433.433 0 11-.866-.002.433.433 0 01.867.002M32.682 7.297a.433.433 0 11-.866-.001.433.433 0 01.866.001M37.61 5.652a.433.433 0 11-.867-.002.433.433 0 01.867.002M35.982 7.297a.433.433 0 11-.867-.001.433.433 0 01.867.001M31.011 8.94a.433.433 0 11-.866-.002.433.433 0 01.866.002M29.383 10.585a.433.433 0 11-.866-.001.433.433 0 01.866 0M34.31 8.94a.433.433 0 11-.867-.002.433.433 0 01.866.002M32.681 10.585a.433.433 0 11-.866-.001.433.433 0 01.866 0M37.608 8.94a.433.433 0 11-.866-.002.433.433 0 01.866.002M35.98 10.585a.433.433 0 11-.866-.001.433.433 0 01.866 0M-8.676 12.285a.433.433 0 11-.867-.001.433.433 0 01.867.001M-10.304 13.93a.433.433 0 11-.867-.001.433.433 0 01.867.001M-5.378 12.285a.433.433 0 11-.867-.001.433.433 0 01.867.001M-7.007 13.93a.433.433 0 11-.866-.001.433.433 0 01.866.001M-2.08 12.285a.433.433 0 11-.866-.001.433.433 0 01.867.001M-3.707 13.93a.433.433 0 11-.867-.001.433.433 0 01.867.001M-8.676 15.574a.433.433 0 11-.867-.001.433.433 0 01.867.001M-10.304 17.22a.433.433 0 11-.867-.002.433.433 0 01.867.002M-5.378 15.574a.433.433 0 11-.867-.001.433.433 0 01.867.001M-7.007 17.22a.433.433 0 11-.866-.002.433.433 0 01.866.002M-2.08 15.574a.433.433 0 11-.866-.001.433.433 0 01.867.001M-3.707 17.22a.433.433 0 11-.867-.002.433.433 0 01.867.002M-8.678 18.862a.433.433 0 11-.866-.002.433.433 0 01.866.002M-10.306 20.507a.433.433 0 11-.867-.001.433.433 0 01.867.001M-5.38 18.862a.433.433 0 11-.866-.002.433.433 0 01.866.002M-7.008 20.507a.433.433 0 11-.867-.001.433.433 0 01.867.001M-2.08 18.862a.433.433 0 11-.867-.002.433.433 0 01.866.002M-3.709 20.507a.433.433 0 11-.866-.001.433.433 0 01.866.001M1.246 12.285a.433.433 0 11-.867-.001.433.433 0 01.867.001M-.382 13.93a.433.433 0 11-.867-.001.433.433 0 01.867.001M4.544 12.285a.433.433 0 11-.867-.001.433.433 0 01.867.001M2.916 13.93a.433.433 0 11-.867-.001.433.433 0 01.867.001M7.843 12.285a.433.433 0 11-.866-.001.433.433 0 01.866.001M6.215 13.93a.433.433 0 11-.867-.001.433.433 0 01.867.001M1.246 15.574a.433.433 0 11-.867-.001.433.433 0 01.867.001M-.382 17.22a.433.433 0 11-.867-.002.433.433 0 01.867.002M4.544 15.574a.433.433 0 11-.867-.001.433.433 0 01.867.001M2.916 17.22a.433.433 0 11-.867-.002.433.433 0 01.867.002M7.843 15.574a.433.433 0 11-.866-.001.433.433 0 01.866.001M6.215 17.22a.433.433 0 11-.867-.002.433.433 0 01.867.002M1.245 18.862a.433.433 0 11-.867-.002.433.433 0 01.867.002M-.384 20.507a.433.433 0 11-.866-.001.433.433 0 01.866.001M4.543 18.862a.433.433 0 11-.867-.002.433.433 0 01.867.002M2.914 20.507a.433.433 0 11-.866-.001.433.433 0 01.866.001M7.842 18.862a.433.433 0 11-.867-.002.433.433 0 01.867.002M6.214 20.507a.433.433 0 11-.867-.001.433.433 0 01.867.001M11.168 12.285a.433.433 0 11-.866-.001.433.433 0 01.866.001M9.54 13.93a.433.433 0 11-.867-.001.433.433 0 01.867.001M14.466 12.285a.433.433 0 11-.866-.001.433.433 0 01.866.001M12.838 13.93a.433.433 0 11-.867-.001.433.433 0 01.867.001M17.765 12.285a.433.433 0 11-.866-.001.433.433 0 01.866.001M16.137 13.93a.433.433 0 11-.867-.001.433.433 0 01.867.001M11.168 15.574a.433.433 0 11-.866-.001.433.433 0 01.866.001M9.54 17.22a.433.433 0 11-.867-.002.433.433 0 01.867.002M14.466 15.574a.433.433 0 11-.866-.001.433.433 0 01.866.001M12.838 17.22a.433.433 0 11-.867-.002.433.433 0 01.867.002M17.765 15.574a.433.433 0 11-.866-.001.433.433 0 01.866.001M16.137 17.22a.433.433 0 11-.867-.002.433.433 0 01.867.002M11.167 18.862a.433.433 0 11-.867-.002.433.433 0 01.867.002M9.539 20.507a.433.433 0 11-.867-.001.433.433 0 01.867.001M14.465 18.862a.433.433 0 11-.867-.002.433.433 0 01.867.002M12.837 20.507a.433.433 0 11-.867-.001.433.433 0 01.867.001M17.764 18.862a.433.433 0 11-.867-.002.433.433 0 01.867.002M16.136 20.507a.433.433 0 11-.867-.001.433.433 0 01.867.001M21.09 12.285a.433.433 0 11-.866-.001.433.433 0 01.866.001M19.462 13.93a.433.433 0 11-.867-.001.433.433 0 01.867.001M24.388 12.285a.433.433 0 11-.866-.001.433.433 0 01.866.001M22.76 13.93a.433.433 0 11-.867-.001.433.433 0 01.867.001M27.687 12.285a.433.433 0 11-.866-.001.433.433 0 01.866.001M26.06 13.93a.433.433 0 11-.867-.001.433.433 0 01.866.001M21.09 15.574a.433.433 0 11-.866-.001.433.433 0 01.866.001M19.462 17.22a.433.433 0 11-.866-.002.433.433 0 01.866.002M24.388 15.574a.433.433 0 11-.866-.001.433.433 0 01.866.001M22.76 17.22a.433.433 0 11-.867-.002.433.433 0 01.867.002M27.687 15.574a.433.433 0 11-.866-.001.433.433 0 01.866.001M26.06 17.22a.433.433 0 11-.867-.002.433.433 0 01.866.002M21.09 18.862a.433.433 0 11-.867-.002.433.433 0 01.866.002M19.46 20.507a.433.433 0 11-.866-.001.433.433 0 01.867.001M24.387 18.862a.433.433 0 11-.867-.002.433.433 0 01.867.002M22.759 20.507a.433.433 0 11-.867-.001.433.433 0 01.867.001M27.686 18.862a.433.433 0 11-.866-.002.433.433 0 01.866.002M26.058 20.507a.433.433 0 11-.867-.001.433.433 0 01.867.001M31.013 12.285a.433.433 0 11-.867-.001.433.433 0 01.867.001M29.384 13.93a.433.433 0 11-.866-.001.433.433 0 01.866.001M34.31 12.285a.433.433 0 11-.866-.001.433.433 0 01.867.001M32.682 13.93a.433.433 0 11-.866-.001.433.433 0 01.866.001M37.61 12.285a.433.433 0 11-.867-.001.433.433 0 01.867.001M35.982 13.93a.433.433 0 11-.867-.001.433.433 0 01.867.001M31.013 15.574a.433.433 0 11-.867-.001.433.433 0 01.867.001M29.384 17.22a.433.433 0 11-.866-.002.433.433 0 01.866.002M34.31 15.574a.433.433 0 11-.866-.001.433.433 0 01.867.001M32.682 17.22a.433.433 0 11-.866-.002.433.433 0 01.866.002M37.61 15.574a.433.433 0 11-.867-.001.433.433 0 01.867.001M35.982 17.22a.433.433 0 11-.867-.002.433.433 0 01.867.002M31.011 18.862a.433.433 0 11-.866-.002.433.433 0 01.866.002M29.383 20.507a.433.433 0 11-.867-.001.433.433 0 01.867.001M34.31 18.862a.433.433 0 11-.867-.002.433.433 0 01.866.002M32.681 20.507a.433.433 0 11-.867-.001.433.433 0 01.867.001M37.608 18.862a.433.433 0 11-.866-.002.433.433 0 01.866.002M35.98 20.507a.433.433 0 11-.867-.001.433.433 0 01.867.001M-8.676 22.207a.433.433 0 11-.867-.001.433.433 0 01.867.001M-10.304 23.853a.433.433 0 11-.867-.002.433.433 0 01.867.002M-5.378 22.207a.433.433 0 11-.867-.001.433.433 0 01.867.001M-7.007 23.853a.433.433 0 11-.866-.002.433.433 0 01.866.002M-2.08 22.207a.433.433 0 11-.866-.001.433.433 0 01.867.001M-3.707 23.853a.433.433 0 11-.867-.002.433.433 0 01.867.002M-8.676 25.496a.433.433 0 11-.867-.001.433.433 0 01.867.001M-10.304 27.142a.433.433 0 11-.867-.002.433.433 0 01.867.002M-5.378 25.496a.433.433 0 11-.867-.001.433.433 0 01.867.001M-7.007 27.142a.433.433 0 11-.866-.002.433.433 0 01.866.002M-2.08 25.496a.433.433 0 11-.866-.001.433.433 0 01.867.001M-3.707 27.142a.433.433 0 11-.867-.002.433.433 0 01.867.002M-8.678 28.784a.433.433 0 11-.866-.001.433.433 0 01.866.001M-10.306 30.43a.433.433 0 11-.866-.002.433.433 0 01.866.002M-5.38 28.784a.433.433 0 11-.866-.001.433.433 0 01.866.001M-7.008 30.43a.433.433 0 11-.866-.002.433.433 0 01.866.002M-2.08 28.784a.433.433 0 11-.867-.001.433.433 0 01.866.001M-3.709 30.43a.433.433 0 11-.866-.002.433.433 0 01.866.002M1.246 22.207a.433.433 0 11-.867-.001.433.433 0 01.867.001M-.382 23.853a.433.433 0 11-.867-.002.433.433 0 01.867.002M4.544 22.207a.433.433 0 11-.867-.001.433.433 0 01.867.001M2.916 23.853a.433.433 0 11-.867-.002.433.433 0 01.867.002M7.843 22.207a.433.433 0 11-.867-.001.433.433 0 01.867.001M6.215 23.853a.433.433 0 11-.867-.002.433.433 0 01.867.002M1.246 25.496a.433.433 0 11-.867-.001.433.433 0 01.867.001M-.382 27.142a.433.433 0 11-.867-.002.433.433 0 01.867.002M4.544 25.496a.433.433 0 11-.867-.001.433.433 0 01.867.001M2.916 27.142a.433.433 0 11-.867-.002.433.433 0 01.867.002M7.843 25.496a.433.433 0 11-.867-.001.433.433 0 01.867.001M6.215 27.142a.433.433 0 11-.867-.002.433.433 0 01.867.002M1.245 28.784a.433.433 0 11-.867-.001.433.433 0 01.867.001M-.384 30.43a.433.433 0 11-.866-.002.433.433 0 01.866.002M4.543 28.784a.433.433 0 11-.867-.001.433.433 0 01.867.001M2.914 30.43a.433.433 0 11-.866-.002.433.433 0 01.866.002M7.842 28.784a.433.433 0 11-.867-.001.433.433 0 01.867.001M6.214 30.43a.433.433 0 11-.867-.002.433.433 0 01.867.002M11.168 22.207a.433.433 0 11-.867-.001.433.433 0 01.867.001M9.54 23.853a.433.433 0 11-.867-.002.433.433 0 01.867.002M14.466 22.207a.433.433 0 11-.867-.001.433.433 0 01.867.001M12.838 23.853a.433.433 0 11-.867-.002.433.433 0 01.867.002M17.765 22.207a.433.433 0 11-.866-.001.433.433 0 01.866.001M16.137 23.853a.433.433 0 11-.867-.002.433.433 0 01.867.002M11.168 25.496a.433.433 0 11-.867-.001.433.433 0 01.867.001M9.54 27.142a.433.433 0 11-.867-.002.433.433 0 01.867.002M14.466 25.496a.433.433 0 11-.867-.001.433.433 0 01.867.001M12.838 27.142a.433.433 0 11-.867-.002.433.433 0 01.867.002M17.765 25.496a.433.433 0 11-.866-.001.433.433 0 01.866.001M16.137 27.142a.433.433 0 11-.867-.002.433.433 0 01.867.002M11.167 28.784a.433.433 0 11-.867-.001.433.433 0 01.867.001M9.539 30.43a.433.433 0 11-.867-.002.433.433 0 01.867.002M14.465 28.784a.433.433 0 11-.867-.001.433.433 0 01.867.001M12.837 30.43a.433.433 0 11-.867-.002.433.433 0 01.867.002M17.764 28.784a.433.433 0 11-.867-.001.433.433 0 01.867.001M16.136 30.43a.433.433 0 11-.867-.002.433.433 0 01.867.002M21.09 22.207a.433.433 0 11-.866-.001.433.433 0 01.866.001M19.462 23.853a.433.433 0 11-.866-.002.433.433 0 01.866.002M24.388 22.207a.433.433 0 11-.866-.001.433.433 0 01.866.001M22.76 23.853a.433.433 0 11-.867-.002.433.433 0 01.867.002M27.687 22.207a.433.433 0 11-.866-.001.433.433 0 01.866.001M26.06 23.853a.433.433 0 11-.867-.002.433.433 0 01.866.002M21.09 25.496a.433.433 0 11-.866-.001.433.433 0 01.866.001M19.462 27.142a.433.433 0 11-.866-.002.433.433 0 01.866.002M24.388 25.496a.433.433 0 11-.866-.001.433.433 0 01.866.001M22.76 27.142a.433.433 0 11-.867-.002.433.433 0 01.867.002M27.687 25.496a.433.433 0 11-.866-.001.433.433 0 01.866.001M26.06 27.142a.433.433 0 11-.867-.002.433.433 0 01.866.002M21.09 28.784a.433.433 0 11-.868-.001.433.433 0 01.867.001M19.46 30.43a.433.433 0 11-.866-.002.433.433 0 01.867.002M24.387 28.784a.433.433 0 11-.867-.001.433.433 0 01.867.001M22.759 30.43a.433.433 0 11-.867-.002.433.433 0 01.867.002M27.686 28.784a.433.433 0 11-.867-.001.433.433 0 01.867.001M26.058 30.43a.433.433 0 11-.867-.002.433.433 0 01.867.002M31.013 22.207a.433.433 0 11-.867-.001.433.433 0 01.867.001M29.384 23.853a.433.433 0 11-.866-.002.433.433 0 01.866.002M34.31 22.207a.433.433 0 11-.866-.001.433.433 0 01.867.001M32.682 23.853a.433.433 0 11-.866-.002.433.433 0 01.866.002M37.61 22.207a.433.433 0 11-.867-.001.433.433 0 01.867.001M35.982 23.853a.433.433 0 11-.867-.002.433.433 0 01.867.002M31.013 25.496a.433.433 0 11-.867-.001.433.433 0 01.867.001M29.384 27.142a.433.433 0 11-.866-.002.433.433 0 01.866.002M34.31 25.496a.433.433 0 11-.866-.001.433.433 0 01.867.001M32.682 27.142a.433.433 0 11-.866-.002.433.433 0 01.866.002M37.61 25.496a.433.433 0 11-.867-.001.433.433 0 01.867.001M35.982 27.142a.433.433 0 11-.867-.002.433.433 0 01.867.002M31.011 28.784a.433.433 0 11-.867-.001.433.433 0 01.867.001M29.383 30.43a.433.433 0 11-.866-.002.433.433 0 01.866.002M34.31 28.784a.433.433 0 11-.868-.001.433.433 0 01.867.001M32.681 30.43a.433.433 0 11-.866-.002.433.433 0 01.866.002M37.608 28.784a.433.433 0 11-.866-.002.433.433 0 01.866.002M35.98 30.43a.433.433 0 11-.866-.002.433.433 0 01.866.002M-8.676 32.13a.433.433 0 11-.867-.002.433.433 0 01.867.002M-10.304 33.775a.433.433 0 11-.867-.001.433.433 0 01.867.001M-5.378 32.13a.433.433 0 11-.867-.002.433.433 0 01.867.002M-7.007 33.775a.433.433 0 11-.866-.001.433.433 0 01.866.001M-2.08 32.13a.433.433 0 11-.866-.002.433.433 0 01.867.002M-3.707 33.775a.433.433 0 11-.867-.001.433.433 0 01.867.001M-8.676 35.419a.433.433 0 11-.867-.002.433.433 0 01.867.002M-10.304 37.064a.433.433 0 11-.867-.001.433.433 0 01.867.001M-5.378 35.419a.433.433 0 11-.867-.002.433.433 0 01.867.002M-7.007 37.064a.433.433 0 11-.866-.001.433.433 0 01.866.001M-2.08 35.419a.433.433 0 11-.866-.002.433.433 0 01.867.002M-3.707 37.064a.433.433 0 11-.867-.001.433.433 0 01.867.001M-8.678 38.706a.433.433 0 11-.866-.001.433.433 0 01.866.001M-10.306 40.352a.433.433 0 11-.866-.002.433.433 0 01.866.002M-5.38 38.706a.433.433 0 11-.866-.001.433.433 0 01.866.001M-7.008 40.352a.433.433 0 11-.866-.002.433.433 0 01.866.002M-2.08 38.706a.433.433 0 11-.867-.001.433.433 0 01.866.001M-3.709 40.352a.433.433 0 11-.866-.002.433.433 0 01.866.002M1.246 32.13a.433.433 0 11-.867-.002.433.433 0 01.867.002M-.382 33.775a.433.433 0 11-.867-.001.433.433 0 01.867.001M4.544 32.13a.433.433 0 11-.867-.002.433.433 0 01.867.002M2.916 33.775a.433.433 0 11-.867-.001.433.433 0 01.867.001M7.843 32.13a.433.433 0 11-.867-.002.433.433 0 01.867.002M6.215 33.775a.433.433 0 11-.867-.001.433.433 0 01.867.001M1.246 35.419a.433.433 0 11-.867-.002.433.433 0 01.867.002M-.382 37.064a.433.433 0 11-.867-.001.433.433 0 01.867.001M4.544 35.419a.433.433 0 11-.867-.002.433.433 0 01.867.002M2.916 37.064a.433.433 0 11-.867-.001.433.433 0 01.867.001M7.843 35.419a.433.433 0 11-.866-.002.433.433 0 01.866.002M6.215 37.064a.433.433 0 11-.867-.001.433.433 0 01.867.001M1.245 38.706a.433.433 0 11-.867-.001.433.433 0 01.867.001M-.384 40.352a.433.433 0 11-.866-.002.433.433 0 01.866.002M4.543 38.706a.433.433 0 11-.867-.001.433.433 0 01.867.001M2.914 40.352a.433.433 0 11-.866-.002.433.433 0 01.866.002M7.842 38.706a.433.433 0 11-.867-.001.433.433 0 01.867.001M6.214 40.352a.433.433 0 11-.867-.002.433.433 0 01.867.002M11.168 32.13a.433.433 0 11-.867-.002.433.433 0 01.867.002M9.54 33.775a.433.433 0 11-.867-.001.433.433 0 01.867.001M14.466 32.13a.433.433 0 11-.867-.002.433.433 0 01.867.002M12.838 33.775a.433.433 0 11-.867-.001.433.433 0 01.867.001M17.765 32.13a.433.433 0 11-.866-.002.433.433 0 01.866.002M16.137 33.775a.433.433 0 11-.866-.001.433.433 0 01.866.001M11.168 35.419a.433.433 0 11-.866-.002.433.433 0 01.866.002M9.54 37.064a.433.433 0 11-.867-.001.433.433 0 01.867.001M14.466 35.419a.433.433 0 11-.866-.002.433.433 0 01.866.002M12.838 37.064a.433.433 0 11-.867-.001.433.433 0 01.867.001M17.765 35.419a.433.433 0 11-.866-.002.433.433 0 01.866.002M16.137 37.064a.433.433 0 11-.866-.001.433.433 0 01.866.001M11.167 38.706a.433.433 0 11-.867-.001.433.433 0 01.867.001M9.539 40.352a.433.433 0 11-.867-.002.433.433 0 01.867.002M14.465 38.706a.433.433 0 11-.867-.001.433.433 0 01.867.001M12.837 40.352a.433.433 0 11-.867-.002.433.433 0 01.867.002M17.764 38.706a.433.433 0 11-.867-.001.433.433 0 01.867.001M16.136 40.352a.433.433 0 11-.867-.002.433.433 0 01.867.002M21.09 32.13a.433.433 0 11-.866-.002.433.433 0 01.866.002M19.462 33.775a.433.433 0 11-.866-.001.433.433 0 01.866.001M24.388 32.13a.433.433 0 11-.866-.002.433.433 0 01.866.002M22.76 33.775a.433.433 0 11-.866-.001.433.433 0 01.866.001M27.687 32.13a.433.433 0 11-.866-.002.433.433 0 01.866.002M26.06 33.775a.433.433 0 11-.867-.001.433.433 0 01.866.001M21.09 35.419a.433.433 0 11-.866-.002.433.433 0 01.866.002M19.462 37.064a.433.433 0 11-.866-.001.433.433 0 01.866.001M24.388 35.419a.433.433 0 11-.866-.002.433.433 0 01.866.002M22.76 37.064a.433.433 0 11-.866-.001.433.433 0 01.866.001M27.687 35.419a.433.433 0 11-.866-.002.433.433 0 01.866.002M26.06 37.064a.433.433 0 11-.867-.001.433.433 0 01.866.001M21.09 38.706a.433.433 0 11-.867-.001.433.433 0 01.866.001M19.46 40.352a.433.433 0 11-.866-.002.433.433 0 01.867.002M24.387 38.706a.433.433 0 11-.867-.001.433.433 0 01.867.001M22.759 40.352a.433.433 0 11-.867-.002.433.433 0 01.867.002M27.686 38.706a.433.433 0 11-.866-.001.433.433 0 01.866.001M26.058 40.352a.433.433 0 11-.867-.002.433.433 0 01.867.002M31.013 32.13a.433.433 0 11-.867-.002.433.433 0 01.867.002M29.384 33.775a.433.433 0 11-.866-.001.433.433 0 01.866.001M34.31 32.13a.433.433 0 11-.866-.002.433.433 0 01.867.002M32.682 33.775a.433.433 0 11-.866-.001.433.433 0 01.866.001M37.61 32.13a.433.433 0 11-.867-.002.433.433 0 01.867.002M35.982 33.775a.433.433 0 11-.867-.001.433.433 0 01.867.001M31.013 35.419a.433.433 0 11-.867-.002.433.433 0 01.867.002M29.384 37.064a.433.433 0 11-.866-.001.433.433 0 01.866.001M34.31 35.419a.433.433 0 11-.866-.002.433.433 0 01.867.002M32.682 37.064a.433.433 0 11-.866-.001.433.433 0 01.866.001M37.61 35.419a.433.433 0 11-.867-.002.433.433 0 01.867.002M35.982 37.064a.433.433 0 11-.867-.001.433.433 0 01.867.001M31.011 38.706a.433.433 0 11-.866-.001.433.433 0 01.866.001M29.383 40.352a.433.433 0 11-.866-.002.433.433 0 01.866.002M34.31 38.706a.433.433 0 11-.867-.001.433.433 0 01.866.001M32.681 40.352a.433.433 0 11-.866-.002.433.433 0 01.866.002M37.608 38.706a.433.433 0 11-.866-.001.433.433 0 01.866.001M35.98 40.352a.433.433 0 11-.866-.002.433.433 0 01.866.002"/></g></g><g transform="translate(23.4 23.8)" fill="#FFF"><rect width="16.8" height="1.6" rx=".8"/><rect y="5.6" width="16.8" height="1.6" rx=".8"/><rect y="11.6" width="8" height="1.6" rx=".8"/></g><path d="M37.646 51.256V43.18a2 2 0 012-2h7.482l-9.482 10.077z" stroke="#F5F5F5" stroke-width="2" fill="#CADA2A"/></g></svg>