<svg width="56" height="56" viewBox="0 0 56 56" fill="none" xmlns="http://www.w3.org/2000/svg">
<path fill-rule="evenodd" clip-rule="evenodd" d="M28 56C43.464 56 56 43.464 56 28C56 12.536 43.464 0 28 0C12.536 0 0 12.536 0 28C0 43.464 12.536 56 28 56Z" fill="#F2F2F2"/>
<path fill-rule="evenodd" clip-rule="evenodd" d="M24.4329 32.0507C28.565 32.0507 31.9147 28.701 31.9147 24.569C31.9147 20.4369 28.565 17.0872 24.4329 17.0872C20.3008 17.0872 16.9511 20.4369 16.9511 24.569C16.9511 28.701 20.3008 32.0507 24.4329 32.0507Z" fill="#CADA2A"/>
<mask id="mask0" mask-type="alpha" maskUnits="userSpaceOnUse" x="16" y="16" width="17" height="17">
<path fill-rule="evenodd" clip-rule="evenodd" d="M24.4327 32.4438C28.7819 32.4438 32.3076 28.9181 32.3076 24.569C32.3076 20.2198 28.7819 16.6941 24.4327 16.6941C20.0836 16.6941 16.5579 20.2198 16.5579 24.569C16.5579 28.9181 20.0836 32.4438 24.4327 32.4438Z" fill="white"/>
</mask>
<g mask="url(#mask0)">
<path fill-rule="evenodd" clip-rule="evenodd" d="M24.2215 28.8471C24.9632 28.8471 25.5697 28.2398 25.5697 27.4981V26.1287H26.9391C27.6808 26.1287 28.2873 25.5222 28.2873 24.7813C28.2873 24.0396 27.6808 23.4331 26.9391 23.4331H25.5697V22.0629C25.5697 21.3212 24.9632 20.7146 24.2215 20.7146C23.4798 20.7146 22.8724 21.3212 22.8724 22.0629V23.4331H21.503C20.7613 23.4331 20.1557 24.0396 20.1557 24.7813C20.1557 25.5222 20.7613 26.1287 21.503 26.1287H22.8724V27.4981C22.8724 28.2398 23.4798 28.8471 24.2215 28.8471Z" fill="white"/>
</g>
<path fill-rule="evenodd" clip-rule="evenodd" d="M32.3859 35.1221C27.1964 39.0175 19.7983 38.6045 15.077 33.8832C9.90321 28.7094 9.90321 20.321 15.077 15.1472C20.2508 9.97343 28.6392 9.97343 33.813 15.1472C38.5343 19.8686 38.9473 27.2668 35.0518 32.4563L43.9634 41.368C44.6996 42.1041 44.6996 43.2976 43.9634 44.0338C43.2273 44.7699 42.0337 44.7699 41.2976 44.0338L32.3859 35.1221ZM31.1471 31.2175C34.8486 27.516 34.8486 21.5146 31.1471 17.8131C27.4456 14.1116 21.4442 14.1116 17.7427 17.8131C14.0412 21.5146 14.0412 27.516 17.7427 31.2175C21.4442 34.919 27.4456 34.919 31.1471 31.2175Z" fill="#00A82D"/>
<mask id="mask1" mask-type="alpha" maskUnits="userSpaceOnUse" x="11" y="11" width="34" height="34">
<path fill-rule="evenodd" clip-rule="evenodd" d="M32.3859 35.1221C27.1964 39.0175 19.7983 38.6045 15.077 33.8832C9.90321 28.7094 9.90321 20.321 15.077 15.1472C20.2508 9.97343 28.6392 9.97343 33.813 15.1472C38.5343 19.8686 38.9473 27.2668 35.0518 32.4563L43.9634 41.368C44.6996 42.1041 44.6996 43.2976 43.9634 44.0338C43.2273 44.7699 42.0337 44.7699 41.2976 44.0338L32.3859 35.1221ZM31.1471 31.2175C34.8486 27.516 34.8486 21.5146 31.1471 17.8131C27.4456 14.1116 21.4442 14.1116 17.7427 17.8131C14.0412 21.5146 14.0412 27.516 17.7427 31.2175C21.4442 34.919 27.4456 34.919 31.1471 31.2175Z" fill="white"/>
</mask>
<g mask="url(#mask1)">
</g>
</svg>