<svg width="56" height="56" viewBox="0 0 56 56" fill="none" xmlns="http://www.w3.org/2000/svg">
<path fill-rule="evenodd" clip-rule="evenodd" d="M28 56C43.464 56 56 43.464 56 28C56 12.536 43.464 0 28 0C12.536 0 0 12.536 0 28C0 43.464 12.536 56 28 56Z" fill="#F2F2F2"/>
<path d="M14 29C14 37.2841 20.7159 44 29 44C37.2841 44 44 37.2841 44 29C44 20.7159 37.2841 14 29 14C20.7159 14 14 20.7159 14 29Z" fill="#CEDC00"/>
<path d="M12 27.5C12 36.0602 18.9398 43 27.5 43C36.0602 43 43 36.0602 43 27.5C43 18.9398 36.0602 12 27.5 12C18.9398 12 12 18.9398 12 27.5Z" fill="#00A82D"/>
<path d="M21.3333 28.8081L25.9394 33.4141L35.1515 22.6667" stroke="white" stroke-width="4" stroke-linecap="round" stroke-linejoin="round"/>
</svg>