<svg width="64" height="65" xmlns="http://www.w3.org/2000/svg"><g fill="none" fill-rule="evenodd"><circle cx="32" cy="32" r="32" transform="translate(0 .538)" fill="#F5F5F5"/><path d="M20.889 16a.888.888 0 00-.889.889V31.11c0 .491.398.889.889.889h11.555a.89.89 0 00.889-.889V16.89a.888.888 0 00-.889-.889H20.89z" fill="#1A1A1A"/><path fill="#F5F5F5" d="M26.222 18.667h-3.555v3.555h3.555zM22.667 24.889h8v.932h-8zM30.667 27.556h-8v.932h8z"/><g><path d="M31.889 26a.888.888 0 00-.889.889V41.11c0 .491.398.889.889.889h11.555a.89.89 0 00.889-.889V26.89a.888.888 0 00-.889-.889H31.89z" fill="#CEDC00"/><path fill="#F5F5F5" d="M37.222 28.667h-3.555v3.555h3.555zM33.667 34.889h8v.932h-8zM41.667 37.556h-8v.932h8z"/></g><g><path d="M24.889 34a.888.888 0 00-.889.889V49.11c0 .491.398.889.889.889h11.555a.89.89 0 00.889-.889V34.89a.888.888 0 00-.889-.889H24.89z" fill="#00A82D"/><path fill="#F5F5F5" d="M30.222 36.667h-3.555v3.555h3.555zM26.667 42.889h8v.932h-8zM34.667 45.556h-8v.932h8z"/></g></g></svg>