<svg width="64" height="65" xmlns="http://www.w3.org/2000/svg" xmlns:xlink="http://www.w3.org/1999/xlink"><defs><path id="a" d="M.202 16.867h27.09V.061H.202z"/></defs><g transform="translate(0 .538)" fill="none" fill-rule="evenodd"><circle fill="#F5F5F5" cx="32" cy="32" r="32"/><g transform="translate(16.917 17.529)"><mask id="b" fill="#fff"><use xlink:href="#a"/></mask><use fill="#00A82D" xlink:href="#a"/><g fill="#010202" mask="url(#b)"><path d="M27.435 4.596a.253.253 0 01-.18-.074l-.34-.342a.253.253 0 11.358-.358l.162.163.573-.573a.253.253 0 11.358.358l-.752.752a.252.252 0 01-.18.074M27.435 8.025a.253.253 0 01-.18-.074l-.34-.342a.253.253 0 11.358-.358l.162.163.573-.574a.253.253 0 11.358.359l-.752.752a.252.252 0 01-.18.074M27.435 11.453a.253.253 0 01-.18-.073l-.34-.343a.253.253 0 11.358-.358l.162.163.573-.573a.253.253 0 11.358.358l-.752.753a.252.252 0 01-.18.073M27.435 14.882a.253.253 0 01-.18-.074l-.34-.342a.253.253 0 11.358-.358l.162.163.573-.574a.253.253 0 11.358.359l-.752.752a.252.252 0 01-.18.074M27.435 18.31a.253.253 0 01-.18-.073l-.34-.342a.253.253 0 11.358-.359l.162.163.573-.573a.253.253 0 11.358.358l-.752.753a.252.252 0 01-.18.074M27.435 21.74a.253.253 0 01-.18-.075l-.34-.342a.253.253 0 11.358-.358l.162.163.573-.573a.253.253 0 11.358.358l-.752.752a.252.252 0 01-.18.074M27.435 25.168a.253.253 0 01-.18-.074l-.34-.342a.253.253 0 11.358-.359l.162.163.573-.573a.253.253 0 11.358.358l-.752.753a.252.252 0 01-.18.074M23.935 2.882a.253.253 0 01-.18-.074l-.34-.342a.253.253 0 11.358-.358l.162.163.573-.574a.253.253 0 11.358.359l-.752.752a.252.252 0 01-.18.074M23.935 6.31a.253.253 0 01-.18-.073l-.34-.342a.253.253 0 11.358-.359l.162.163.573-.573a.253.253 0 11.358.358l-.752.753a.252.252 0 01-.18.074M23.935 9.74a.253.253 0 01-.18-.075l-.34-.342a.253.253 0 11.358-.358l.162.163.573-.573a.253.253 0 11.358.358l-.752.752a.252.252 0 01-.18.074M23.935 13.168a.253.253 0 01-.18-.074l-.34-.342a.253.253 0 11.358-.359l.162.163.573-.573a.253.253 0 11.358.358l-.752.753a.252.252 0 01-.18.074M23.935 16.596a.253.253 0 01-.18-.074l-.34-.342a.253.253 0 11.358-.358l.162.163.573-.573a.253.253 0 11.358.358l-.752.752a.252.252 0 01-.18.074M23.935 20.025a.253.253 0 01-.18-.074l-.34-.342a.253.253 0 11.358-.358l.162.163.573-.574a.253.253 0 11.358.359l-.752.752a.252.252 0 01-.18.074M23.935 23.453a.253.253 0 01-.18-.073l-.34-.343a.253.253 0 11.358-.358l.162.163.573-.573a.253.253 0 11.358.358l-.752.753a.252.252 0 01-.18.073"/><g><path d="M20.435 4.596a.253.253 0 01-.18-.074l-.34-.342a.253.253 0 11.358-.358l.162.163.573-.573a.253.253 0 11.358.358l-.752.752a.252.252 0 01-.18.074M20.435 8.025a.253.253 0 01-.18-.074l-.34-.342a.253.253 0 11.358-.358l.162.163.573-.574a.253.253 0 11.358.359l-.752.752a.252.252 0 01-.18.074M20.435 11.453a.253.253 0 01-.18-.073l-.34-.343a.253.253 0 11.358-.358l.162.163.573-.573a.253.253 0 11.358.358l-.752.753a.252.252 0 01-.18.073M20.435 14.882a.253.253 0 01-.18-.074l-.34-.342a.253.253 0 11.358-.358l.162.163.573-.574a.253.253 0 11.358.359l-.752.752a.252.252 0 01-.18.074M20.435 18.31a.253.253 0 01-.18-.073l-.34-.342a.253.253 0 11.358-.359l.162.163.573-.573a.253.253 0 11.358.358l-.752.753a.252.252 0 01-.18.074M20.435 21.74a.253.253 0 01-.18-.075l-.34-.342a.253.253 0 11.358-.358l.162.163.573-.573a.253.253 0 11.358.358l-.752.752a.252.252 0 01-.18.074M20.435 25.168a.253.253 0 01-.18-.074l-.34-.342a.253.253 0 11.358-.359l.162.163.573-.573a.253.253 0 11.358.358l-.752.753a.252.252 0 01-.18.074"/></g><g><path d="M16.935 2.882a.253.253 0 01-.18-.074l-.34-.342a.253.253 0 11.358-.358l.162.163.573-.574a.253.253 0 11.358.359l-.752.752a.252.252 0 01-.18.074M16.935 6.31a.253.253 0 01-.18-.073l-.34-.342a.253.253 0 11.358-.359l.162.163.573-.573a.253.253 0 11.358.358l-.752.753a.252.252 0 01-.18.074M16.935 9.74a.253.253 0 01-.18-.075l-.34-.342a.253.253 0 11.358-.358l.162.163.573-.573a.253.253 0 11.358.358l-.752.752a.252.252 0 01-.18.074M16.935 13.168a.253.253 0 01-.18-.074l-.34-.342a.253.253 0 11.358-.359l.162.163.573-.573a.253.253 0 11.358.358l-.752.753a.252.252 0 01-.18.074M16.935 16.596a.253.253 0 01-.18-.074l-.34-.342a.253.253 0 11.358-.358l.162.163.573-.573a.253.253 0 11.358.358l-.752.752a.252.252 0 01-.18.074M16.935 20.025a.253.253 0 01-.18-.074l-.34-.342a.253.253 0 11.358-.358l.162.163.573-.574a.253.253 0 11.358.359l-.752.752a.252.252 0 01-.18.074M16.935 23.453a.253.253 0 01-.18-.073l-.34-.343a.253.253 0 11.358-.358l.162.163.573-.573a.253.253 0 11.358.358l-.752.753a.252.252 0 01-.18.073"/></g><g><path d="M13.435 4.596a.253.253 0 01-.18-.074l-.34-.342a.253.253 0 11.358-.358l.162.163.573-.573a.253.253 0 11.358.358l-.752.752a.252.252 0 01-.18.074M13.435 8.025a.253.253 0 01-.18-.074l-.34-.342a.253.253 0 11.358-.358l.162.163.573-.574a.253.253 0 11.358.359l-.752.752a.252.252 0 01-.18.074M13.435 11.453a.253.253 0 01-.18-.073l-.34-.343a.253.253 0 11.358-.358l.162.163.573-.573a.253.253 0 11.358.358l-.752.753a.252.252 0 01-.18.073M13.435 14.882a.253.253 0 01-.18-.074l-.34-.342a.253.253 0 11.358-.358l.162.163.573-.574a.253.253 0 11.358.359l-.752.752a.252.252 0 01-.18.074M13.435 18.31a.253.253 0 01-.18-.073l-.34-.342a.253.253 0 11.358-.359l.162.163.573-.573a.253.253 0 11.358.358l-.752.753a.252.252 0 01-.18.074M13.435 21.74a.253.253 0 01-.18-.075l-.34-.342a.253.253 0 11.358-.358l.162.163.573-.573a.253.253 0 11.358.358l-.752.752a.252.252 0 01-.18.074M13.435 25.168a.253.253 0 01-.18-.074l-.34-.342a.253.253 0 11.358-.359l.162.163.573-.573a.253.253 0 11.358.358l-.752.753a.252.252 0 01-.18.074"/></g><g><path d="M9.935 2.882a.253.253 0 01-.18-.074l-.34-.342a.253.253 0 11.358-.358l.162.163.573-.574a.253.253 0 11.358.359l-.752.752a.252.252 0 01-.18.074M9.935 6.31a.253.253 0 01-.18-.073l-.34-.342a.253.253 0 11.358-.359l.162.163.573-.573a.253.253 0 11.358.358l-.752.753a.252.252 0 01-.18.074M9.935 9.74a.253.253 0 01-.18-.075l-.34-.342a.253.253 0 11.358-.358l.162.163.573-.573a.253.253 0 11.358.358l-.752.752a.252.252 0 01-.18.074M9.935 13.168a.253.253 0 01-.18-.074l-.34-.342a.253.253 0 11.358-.359l.162.163.573-.573a.253.253 0 11.358.358l-.752.753a.252.252 0 01-.18.074M9.935 16.596a.253.253 0 01-.18-.074l-.34-.342a.253.253 0 11.358-.358l.162.163.573-.573a.253.253 0 11.358.358l-.752.752a.252.252 0 01-.18.074M9.935 20.025a.253.253 0 01-.18-.074l-.34-.342a.253.253 0 11.358-.358l.162.163.573-.574a.253.253 0 11.358.359l-.752.752a.252.252 0 01-.18.074M9.935 23.453a.253.253 0 01-.18-.073l-.34-.343a.253.253 0 11.358-.358l.162.163.573-.573a.253.253 0 11.358.358l-.752.753a.252.252 0 01-.18.073"/></g><g><path d="M6.435 4.596a.253.253 0 01-.18-.074l-.34-.342a.253.253 0 11.358-.358l.162.163.573-.573a.253.253 0 11.358.358l-.752.752a.252.252 0 01-.18.074M6.435 8.025a.253.253 0 01-.18-.074l-.34-.342a.253.253 0 11.358-.358l.162.163.573-.574a.253.253 0 11.358.359l-.752.752a.252.252 0 01-.18.074M6.435 11.453a.253.253 0 01-.18-.073l-.34-.343a.253.253 0 11.358-.358l.162.163.573-.573a.253.253 0 11.358.358l-.752.753a.252.252 0 01-.18.073M6.435 14.882a.253.253 0 01-.18-.074l-.34-.342a.253.253 0 11.358-.358l.162.163.573-.574a.253.253 0 11.358.359l-.752.752a.252.252 0 01-.18.074M6.435 18.31a.253.253 0 01-.18-.073l-.34-.342a.253.253 0 11.358-.359l.162.163.573-.573a.253.253 0 11.358.358l-.752.753a.252.252 0 01-.18.074M6.435 21.74a.253.253 0 01-.18-.075l-.34-.342a.253.253 0 11.358-.358l.162.163.573-.573a.253.253 0 11.358.358l-.752.752a.252.252 0 01-.18.074M6.435 25.168a.253.253 0 01-.18-.074l-.34-.342a.253.253 0 11.358-.359l.162.163.573-.573a.253.253 0 11.358.358l-.752.753a.252.252 0 01-.18.074"/></g><g><path d="M2.935 2.882a.253.253 0 01-.18-.074l-.34-.342a.253.253 0 11.358-.358l.162.163.573-.574a.253.253 0 11.358.359l-.752.752a.252.252 0 01-.18.074M2.935 6.31a.253.253 0 01-.18-.073l-.34-.342a.253.253 0 11.358-.359l.162.163.573-.573a.253.253 0 11.358.358l-.752.753a.252.252 0 01-.18.074M2.935 9.74a.253.253 0 01-.18-.075l-.34-.342a.253.253 0 11.358-.358l.162.163.573-.573a.253.253 0 11.358.358l-.752.752a.252.252 0 01-.18.074M2.935 13.168a.253.253 0 01-.18-.074l-.34-.342a.253.253 0 11.358-.359l.162.163.573-.573a.253.253 0 11.358.358l-.752.753a.252.252 0 01-.18.074M2.935 16.596a.253.253 0 01-.18-.074l-.34-.342a.253.253 0 11.358-.358l.162.163.573-.573a.253.253 0 11.358.358l-.752.752a.252.252 0 01-.18.074M2.935 20.025a.253.253 0 01-.18-.074l-.34-.342a.253.253 0 11.358-.358l.162.163.573-.574a.253.253 0 11.358.359l-.752.752a.252.252 0 01-.18.074M2.935 23.453a.253.253 0 01-.18-.073l-.34-.343a.253.253 0 11.358-.358l.162.163.573-.573a.253.253 0 11.358.358l-.752.753a.252.252 0 01-.18.073"/></g></g></g><path d="M17.575 33.244h26.138V17.796H17.575v15.448zm8.853 7.016a.205.205 0 01-.205-.205v-.985c0-.113.092-.205.205-.205h1.618v-3.41H17.43c-.676 0-1.225-.55-1.225-1.226V17.507c0-.676.55-1.225 1.225-1.225h26.428c.676 0 1.225.55 1.225 1.225v16.722c0 .676-.55 1.226-1.225 1.226H33.242v3.41h1.619c.112 0 .204.092.204.205v.985a.205.205 0 01-.204.205h-8.433z" fill="#010202"/><path d="M43.858 16.077H17.43c-.788 0-1.43.642-1.43 1.43v16.722c0 .789.642 1.43 1.43 1.43H27.84v3.002h-1.413a.409.409 0 00-.41.409v.985c0 .226.183.409.41.409h8.433a.41.41 0 00.409-.409v-.985a.41.41 0 00-.41-.41h-1.413v-3h10.411c.789 0 1.43-.642 1.43-1.43V17.506c0-.788-.641-1.43-1.43-1.43zm0 .41c.562 0 1.02.459 1.02 1.02v16.722c0 .561-.458 1.021-1.02 1.021h-10.82v3.82h1.823v.985h-8.433v-.985h1.822v-3.82H17.43c-.562 0-1.02-.46-1.02-1.02V17.506c0-.561.458-1.02 1.02-1.02h26.428z" fill="#FEFEFE"/><g><path d="M35.367 47.474a2.463 2.463 0 01-2.46-2.46v-12.65a2.463 2.463 0 012.46-2.46h9.324a2.463 2.463 0 012.46 2.46v12.65a2.463 2.463 0 01-2.46 2.46h-9.324z" fill="#CADA2A"/><path d="M44.69 29.596h-9.323a2.77 2.77 0 00-2.767 2.767v12.651a2.77 2.77 0 002.767 2.768h9.324a2.77 2.77 0 002.767-2.768v-12.65a2.77 2.77 0 00-2.767-2.768m0 .614c1.189 0 2.152.965 2.152 2.153v12.651a2.153 2.153 0 01-2.152 2.153h-9.324a2.153 2.153 0 01-2.153-2.153v-12.65c0-1.19.964-2.154 2.153-2.154h9.324" fill="#FEFEFE"/><path d="M35.825 34.715h8.408M35.825 43.093h8.408M35.825 38.918h8.408" stroke="#FEFEFE" stroke-linecap="round" stroke-linejoin="round"/></g></g></svg>